<svg width="35" height="35" viewBox="0 0 35 35" fill="none" xmlns="http://www.w3.org/2000/svg">
<path d="M17.5 35C7.85031 35 0 27.1497 0 17.5C0 7.85031 7.85031 0 17.5 0C20.7689 0 23.9574 0.907205 26.7213 2.62395C27.2043 2.92369 27.3524 3.55845 27.0526 4.04156C26.7524 4.5246 26.1176 4.67371 25.635 4.37289C23.1977 2.85876 20.3845 2.05888 17.5 2.05888C8.98565 2.05888 2.05881 8.98596 2.05881 17.5001C2.05881 26.0142 8.98565 32.9412 17.5 32.9412C26.0141 32.9412 32.9412 26.0141 32.9412 17.5C32.9412 15.7886 32.6634 14.1083 32.1156 12.5058C31.9316 11.968 32.219 11.3825 32.7568 11.1986C33.2957 11.0158 33.8801 11.3021 34.064 11.8399C34.6848 13.6574 35.0001 15.5619 35.0001 17.5001C35 27.1497 27.1497 35 17.5 35Z" fill="#0071E3"/>
<path d="M17.5001 23.4372C17.239 23.4372 16.9864 23.338 16.7953 23.1578L8.56002 15.4218C8.14559 15.0326 8.1252 14.3811 8.51448 13.9667C8.90377 13.5528 9.55515 13.5313 9.96958 13.9217L17.4127 20.9136L30.9376 4.85797C31.3033 4.42315 31.9531 4.36741 32.3879 4.73408C32.8227 5.10029 32.8785 5.74953 32.5118 6.18435L18.2871 23.0711C18.1054 23.2871 17.8421 23.419 17.5601 23.4357C17.5403 23.4367 17.5199 23.4372 17.5001 23.4372Z" fill="#0071E3"/>
</svg>
