<svg width="156" height="48" viewBox="0 0 156 48" fill="none" xmlns="http://www.w3.org/2000/svg">
<path d="M111.5 0H122.562L96.5 44H86L111.5 0Z" fill="#D2D2D2"/>
<path d="M25.6706 0H35L10 44H0L25.6706 0Z" fill="#D2D2D2"/>
<path d="M35 0H111.5L86 44H10L35 0Z" fill="#7D7D7D" fill-opacity="0.5"/>
<path d="M40.8164 30.4414C40.8164 29.4388 40.4583 28.6576 39.7422 28.0977C39.0391 27.5378 37.7956 26.9583 36.0117 26.3594C34.2279 25.7604 32.7695 25.181 31.6367 24.6211C27.9518 22.8112 26.1094 20.3242 26.1094 17.1602C26.1094 15.5846 26.5651 14.1979 27.4766 13C28.401 11.7891 29.7031 10.8516 31.3828 10.1875C33.0625 9.51042 34.9505 9.17188 37.0469 9.17188C39.0911 9.17188 40.9206 9.53646 42.5352 10.2656C44.1628 10.9948 45.4258 12.0365 46.3242 13.3906C47.2227 14.7318 47.6719 16.2682 47.6719 18H40.8359C40.8359 16.8411 40.4779 15.9427 39.7617 15.3047C39.0586 14.6667 38.1016 14.3477 36.8906 14.3477C35.6667 14.3477 34.6966 14.6211 33.9805 15.168C33.2773 15.7018 32.9258 16.3854 32.9258 17.2188C32.9258 17.9479 33.3164 18.612 34.0977 19.2109C34.8789 19.7969 36.2526 20.4089 38.2188 21.0469C40.1849 21.6719 41.7995 22.349 43.0625 23.0781C46.1354 24.849 47.6719 27.2904 47.6719 30.4023C47.6719 32.8893 46.7344 34.8424 44.8594 36.2617C42.9844 37.681 40.4128 38.3906 37.1445 38.3906C34.8398 38.3906 32.75 37.9805 30.875 37.1602C29.013 36.3268 27.6068 35.194 26.6562 33.7617C25.7188 32.3164 25.25 30.6562 25.25 28.7812H32.125C32.125 30.3047 32.5156 31.431 33.2969 32.1602C34.0911 32.8763 35.3737 33.2344 37.1445 33.2344C38.2773 33.2344 39.1693 32.9935 39.8203 32.5117C40.4844 32.0169 40.8164 31.3268 40.8164 30.4414ZM58.5508 11.6133V16.8672H62.0273V21.4375H58.5508V31.1055C58.5508 31.8997 58.694 32.4531 58.9805 32.7656C59.2669 33.0781 59.8333 33.2344 60.6797 33.2344C61.3307 33.2344 61.8776 33.1953 62.3203 33.1172V37.8242C61.1354 38.2018 59.8984 38.3906 58.6094 38.3906C56.3438 38.3906 54.6706 37.8568 53.5898 36.7891C52.5091 35.7214 51.9688 34.1003 51.9688 31.9258V21.4375H49.2734V16.8672H51.9688V11.6133H58.5508ZM76.5391 38C76.3047 37.5703 76.0964 36.9388 75.9141 36.1055C74.7031 37.6289 73.0104 38.3906 70.8359 38.3906C68.8438 38.3906 67.151 37.7917 65.7578 36.5938C64.3646 35.3828 63.668 33.8659 63.668 32.043C63.668 29.7513 64.5143 28.0195 66.207 26.8477C67.8997 25.6758 70.3607 25.0898 73.5898 25.0898H75.6211V23.9766C75.6211 22.0365 74.7812 21.0664 73.1016 21.0664C71.5391 21.0664 70.7578 21.8346 70.7578 23.3711H64.1758C64.1758 21.3268 65.0417 19.6667 66.7734 18.3906C68.5182 17.1146 70.7383 16.4766 73.4336 16.4766C76.1289 16.4766 78.2578 17.1341 79.8203 18.4492C81.3828 19.7643 82.1836 21.5677 82.2227 23.8594V33.2148C82.2487 35.1549 82.5482 36.6393 83.1211 37.668V38H76.5391ZM72.418 33.7031C73.2383 33.7031 73.9154 33.5273 74.4492 33.1758C74.9961 32.8242 75.3867 32.4271 75.6211 31.9844V28.6055H73.707C71.4154 28.6055 70.2695 29.6341 70.2695 31.6914C70.2695 32.2904 70.4714 32.7786 70.875 33.1562C71.2786 33.5208 71.793 33.7031 72.418 33.7031ZM87.3398 38V21.4375H84.2734V16.8672H87.3398V15.1875C87.3398 12.7786 88.0495 10.9102 89.4688 9.58203C90.888 8.25391 92.8802 7.58984 95.4453 7.58984C96.3828 7.58984 97.4115 7.72656 98.5312 8L98.5508 12.8438C98.1471 12.7266 97.6068 12.668 96.9297 12.668C94.9375 12.668 93.9414 13.5273 93.9414 15.2461V16.8672H98.0625V21.4375H93.9414V38H87.3398ZM101.832 38V21.4375H98.7656V16.8672H101.832V15.1875C101.832 12.7786 102.542 10.9102 103.961 9.58203C105.38 8.25391 107.372 7.58984 109.938 7.58984C110.875 7.58984 111.904 7.72656 113.023 8L113.043 12.8438C112.639 12.7266 112.099 12.668 111.422 12.668C109.43 12.668 108.434 13.5273 108.434 15.2461V16.8672H112.555V21.4375H108.434V38H101.832Z" fill="#FDFDFD"/>
<path d="M121.812 38H115.211V8H121.812V38ZM132.828 38H126.227V16.8672H132.828V38ZM125.836 11.418C125.836 10.4805 126.174 9.71224 126.852 9.11328C127.529 8.51432 128.408 8.21484 129.488 8.21484C130.569 8.21484 131.448 8.51432 132.125 9.11328C132.802 9.71224 133.141 10.4805 133.141 11.418C133.141 12.3555 132.802 13.1237 132.125 13.7227C131.448 14.3216 130.569 14.6211 129.488 14.6211C128.408 14.6211 127.529 14.3216 126.852 13.7227C126.174 13.1237 125.836 12.3555 125.836 11.418ZM145.465 22.6875L148.531 16.8672H155.367L149.801 27.1602L155.641 38H148.766L145.445 31.75L142.184 38H135.27L141.129 27.1602L135.582 16.8672H142.496L145.465 22.6875Z" fill="#313131"/>
</svg>
