<svg width="678" height="396" viewBox="0 0 678 396" fill="none" xmlns="http://www.w3.org/2000/svg">
<path d="M92.3203 0H101L79.6953 36H71.0156L92.3203 0Z" fill="#D2D2D2" fill-opacity="0.1"/>
<path d="M21.3047 0H29.9844L8.67969 36H0L21.3047 0Z" fill="#D2D2D2" fill-opacity="0.1"/>
<path d="M29.9844 0H92.3203L71.0156 36H8.67969L29.9844 0Z" fill="white" fill-opacity="0.5"/>
<path d="M534.021 374.552C534.021 373.299 533.573 372.322 532.678 371.622C531.799 370.922 530.244 370.198 528.015 369.449C525.785 368.701 523.962 367.976 522.546 367.276C517.94 365.014 515.637 361.905 515.637 357.95C515.637 355.981 516.206 354.247 517.346 352.75C518.501 351.236 520.129 350.064 522.229 349.234C524.328 348.388 526.688 347.965 529.309 347.965C531.864 347.965 534.151 348.421 536.169 349.332C538.203 350.243 539.782 351.546 540.905 353.238C542.028 354.915 542.59 356.835 542.59 359H534.045C534.045 357.551 533.597 356.428 532.702 355.631C531.823 354.833 530.627 354.435 529.113 354.435C527.583 354.435 526.371 354.776 525.476 355.46C524.597 356.127 524.157 356.982 524.157 358.023C524.157 358.935 524.646 359.765 525.622 360.514C526.599 361.246 528.316 362.011 530.773 362.809C533.231 363.59 535.249 364.436 536.828 365.348C540.669 367.561 542.59 370.613 542.59 374.503C542.59 377.612 541.418 380.053 539.074 381.827C536.73 383.601 533.516 384.488 529.431 384.488C526.55 384.488 523.938 383.976 521.594 382.95C519.266 381.909 517.508 380.493 516.32 378.702C515.148 376.896 514.562 374.82 514.562 372.477H523.156C523.156 374.381 523.645 375.789 524.621 376.7C525.614 377.595 527.217 378.043 529.431 378.043C530.847 378.043 531.962 377.742 532.775 377.14C533.605 376.521 534.021 375.659 534.021 374.552ZM556.188 351.017V357.584H560.534V363.297H556.188V375.382C556.188 376.375 556.368 377.066 556.726 377.457C557.084 377.848 557.792 378.043 558.85 378.043C559.663 378.043 560.347 377.994 560.9 377.896V383.78C559.419 384.252 557.873 384.488 556.262 384.488C553.43 384.488 551.338 383.821 549.987 382.486C548.636 381.152 547.961 379.125 547.961 376.407V363.297H544.592V357.584H547.961V351.017H556.188ZM578.674 384C578.381 383.463 578.12 382.674 577.893 381.632C576.379 383.536 574.263 384.488 571.545 384.488C569.055 384.488 566.939 383.74 565.197 382.242C563.456 380.729 562.585 378.832 562.585 376.554C562.585 373.689 563.643 371.524 565.759 370.06C567.875 368.595 570.951 367.862 574.987 367.862H577.526V366.471C577.526 364.046 576.477 362.833 574.377 362.833C572.424 362.833 571.447 363.793 571.447 365.714H563.22C563.22 363.159 564.302 361.083 566.467 359.488C568.648 357.893 571.423 357.096 574.792 357.096C578.161 357.096 580.822 357.918 582.775 359.562C584.729 361.205 585.729 363.46 585.778 366.324V378.019C585.811 380.444 586.185 382.299 586.901 383.585V384H578.674ZM573.522 378.629C574.548 378.629 575.394 378.409 576.062 377.97C576.745 377.53 577.233 377.034 577.526 376.48V372.257H575.134C572.269 372.257 570.837 373.543 570.837 376.114C570.837 376.863 571.089 377.473 571.594 377.945C572.098 378.401 572.741 378.629 573.522 378.629ZM592.175 384V363.297H588.342V357.584H592.175V355.484C592.175 352.473 593.062 350.138 594.836 348.478C596.61 346.817 599.1 345.987 602.307 345.987C603.479 345.987 604.764 346.158 606.164 346.5L606.188 352.555C605.684 352.408 605.008 352.335 604.162 352.335C601.672 352.335 600.427 353.409 600.427 355.558V357.584H605.578V363.297H600.427V384H592.175ZM610.29 384V363.297H606.457V357.584H610.29V355.484C610.29 352.473 611.177 350.138 612.951 348.478C614.725 346.817 617.215 345.987 620.422 345.987C621.594 345.987 622.88 346.158 624.279 346.5L624.304 352.555C623.799 352.408 623.124 352.335 622.277 352.335C619.787 352.335 618.542 353.409 618.542 355.558V357.584H623.693V363.297H618.542V384H610.29Z" fill="#313131"/>
<path d="M635.266 384H627.014V346.5H635.266V384ZM649.035 384H640.783V357.584H649.035V384ZM640.295 350.772C640.295 349.601 640.718 348.64 641.564 347.892C642.411 347.143 643.509 346.769 644.86 346.769C646.211 346.769 647.31 347.143 648.156 347.892C649.003 348.64 649.426 349.601 649.426 350.772C649.426 351.944 649.003 352.905 648.156 353.653C647.31 354.402 646.211 354.776 644.86 354.776C643.509 354.776 642.411 354.402 641.564 353.653C640.718 352.905 640.295 351.944 640.295 350.772ZM664.831 364.859L668.664 357.584H677.209L670.251 370.45L677.551 384H668.957L664.807 376.188L660.729 384H652.087L659.411 370.45L652.478 357.584H661.12L664.831 364.859Z" fill="#FDFDFD"/>
</svg>
