<svg width="70" height="52" viewBox="0 0 70 52" fill="none" xmlns="http://www.w3.org/2000/svg">
<path d="M61.308 23.1319C58.9435 21.9411 54.5102 21.9272 54.3226 21.9272C53.7604 21.9272 53.3047 22.3863 53.3047 22.9526C53.3047 23.5189 53.7604 23.978 54.3226 23.978C55.4666 23.9782 58.7881 24.1556 60.3976 24.9662C60.5438 25.0399 60.699 25.0746 60.852 25.0746C61.2253 25.0746 61.5849 24.8668 61.7632 24.5077C62.0147 24.0011 61.8108 23.3852 61.308 23.1319Z" fill="#0071E3"/>
<path d="M66.3827 37.731L62.1787 36.521C61.9973 36.4688 61.8705 36.2995 61.8705 36.1093V34.6958C62.2125 34.4571 62.5388 34.1899 62.8438 33.8918C64.3218 32.4469 65.1357 30.5089 65.1357 28.4346V26.4841L65.5422 25.6653C65.9883 24.7663 66.224 23.7599 66.224 22.7551V17.4709C66.224 16.9046 65.7683 16.4455 65.2061 16.4455H55.4107C51.8489 16.4455 48.951 19.3647 48.951 22.9528V23.0139C48.951 23.8495 49.1471 24.6863 49.518 25.4337L50.0393 26.4839V28.1587C50.0393 30.813 51.3378 33.1945 53.3045 34.6276L53.3048 36.1091C53.3048 36.3375 53.3048 36.4321 52.4642 36.6741L50.413 37.2645L44.4791 35.0909C44.5004 34.8089 44.406 34.522 44.2017 34.3059L42.3055 32.2991V28.9304C42.506 28.764 42.7036 28.5931 42.8951 28.4123C45.2872 26.1537 46.659 22.9649 46.659 19.6636V16.9732C47.3814 15.3899 47.7474 13.7144 47.7474 11.9889V1.02539C47.7474 0.459102 47.2916 0 46.7295 0H31.4923C26.1299 0 21.7674 4.39469 21.7674 9.79631V11.9891C21.7674 13.7147 22.1335 15.3902 22.8558 16.9735V19.2883C22.8558 23.1213 24.5477 26.5746 27.2093 28.8512V32.2993L25.3132 34.306C25.1089 34.5222 25.0144 34.809 25.0357 35.0911L18.7729 37.3851C18.3191 37.5513 17.8974 37.7765 17.5145 38.0492L16.5311 37.5539C19.4586 36.2703 20.3859 34.4649 20.4305 34.3752C20.5738 34.0866 20.5738 33.7467 20.4305 33.4581C19.6966 31.9796 19.6077 29.2697 19.5363 27.0923C19.5126 26.3674 19.4901 25.6826 19.447 25.0728C19.1 20.1545 15.3883 16.4455 10.8131 16.4455C6.238 16.4455 2.52617 20.1544 2.17927 25.0728C2.13625 25.6828 2.11372 26.3676 2.08996 27.0926C2.01858 29.2698 1.92954 31.9795 1.19584 33.4579C1.05251 33.7466 1.05251 34.0864 1.19584 34.3751C1.24035 34.4647 2.16583 36.2664 5.09917 37.5516L2.36751 38.9274C0.907158 39.6635 0 41.1421 0 42.7867V50.3621C0 50.9284 0.45575 51.3875 1.01791 51.3875C1.58006 51.3875 2.03581 50.9284 2.03581 50.3621V42.7867C2.03581 41.9237 2.51179 41.1478 3.27793 40.7619L6.6795 39.0486L7.86271 40.1814C8.69007 40.9734 9.7514 41.3692 10.8131 41.3692C11.8746 41.3692 12.9365 40.9731 13.7636 40.1814L14.9467 39.0488L16.0558 39.6074C15.5335 40.4492 15.2371 41.4363 15.2371 42.4703V50.3624C15.2371 50.9287 15.6929 51.3878 16.255 51.3878C16.8172 51.3878 17.2729 50.9287 17.2729 50.3624V42.4703C17.2729 41.0627 18.1552 39.7936 19.4686 39.3125L26.0717 36.8938L28.8205 41.0475C29.1718 41.5785 29.7349 41.9191 30.3654 41.982C30.4357 41.9889 30.5056 41.9923 30.5753 41.9923C31.1315 41.9923 31.6642 41.7718 32.0624 41.3708L33.7394 39.6815V50.3625C33.7394 50.9288 34.1951 51.3879 34.7573 51.3879C35.3194 51.3879 35.7752 50.9288 35.7752 50.3625V39.6815L37.4522 41.3708C37.8502 41.772 38.3829 41.9925 38.9393 41.9925C39.0089 41.9925 39.0789 41.9891 39.1491 41.9821C39.7796 41.9192 40.3427 41.5786 40.6941 41.0476L43.443 36.8941L50.046 39.3128C51.3592 39.7939 52.2417 41.0629 52.2417 42.4706V50.3627C52.2417 50.929 52.6974 51.3881 53.2596 51.3881C53.8217 51.3881 54.2775 50.929 54.2775 50.3627V42.4706C54.2775 41.0449 53.7152 39.7078 52.7719 38.7189L53.0234 38.6466C53.2771 38.5736 53.6232 38.4736 53.9706 38.302L56.5695 40.9201V50.3627C56.5695 50.929 57.0253 51.3881 57.5874 51.3881C58.1496 51.3881 58.6053 50.929 58.6053 50.3627V40.9201L61.1862 38.3202C61.3234 38.3905 61.4676 38.4498 61.6193 38.4934L65.8234 39.7034C66.7829 39.9796 67.4532 40.8747 67.4532 41.8801V50.3627C67.4532 50.929 67.909 51.3881 68.4712 51.3881C69.0333 51.3881 69.4891 50.929 69.4891 50.3627V41.8801C69.4891 39.9636 68.2117 38.2575 66.3827 37.731ZM6.53021 35.9198C4.62618 35.2297 3.67111 34.3096 3.26341 33.8071C3.54136 33.0751 3.7216 32.2368 3.84361 31.3518C4.40495 32.7076 5.34509 33.8651 6.53021 34.6909V35.9198ZM12.3615 38.695C11.4932 39.5259 10.1332 39.5258 9.26525 38.6948L8.3186 37.7887C8.47834 37.4872 8.56616 37.1454 8.56616 36.7873V35.6944C9.27625 35.9179 10.0311 36.0385 10.8134 36.0385C11.5948 36.0385 12.3492 35.9174 13.0606 35.6951L13.0604 36.7872C13.0604 37.1454 13.1481 37.4873 13.308 37.7889L12.3615 38.695ZM10.8137 33.9877C7.77409 33.9877 5.30139 31.4967 5.30139 28.4349C5.30139 27.8686 4.84564 27.4095 4.28348 27.4095C4.22648 27.4095 4.17084 27.4154 4.11641 27.4246C4.1194 27.3364 4.12225 27.248 4.12523 27.1607C4.1479 26.4556 4.16975 25.7897 4.21006 25.2185C4.34008 23.376 5.07094 21.6783 6.26799 20.4377C7.47577 19.1859 9.09004 18.4965 10.8134 18.4965C12.5368 18.4965 14.1509 19.1859 15.3588 20.4377C16.5559 21.6783 17.2868 23.376 17.4168 25.2185C17.457 25.7895 17.4789 26.4554 17.502 27.1603C17.504 27.2208 17.5061 27.2822 17.5081 27.3432C16.4006 25.6244 14.6903 24.3577 12.4803 23.6424C10.4387 22.9816 8.68274 23.0225 8.60864 23.0244C8.34208 23.0319 8.0891 23.1443 7.90411 23.3376L6.06753 25.2563C5.67734 25.664 5.68901 26.3132 6.09373 26.7062C6.49845 27.0993 7.14285 27.0874 7.53305 26.6798L9.06126 25.0834C10.3773 25.1482 14.6114 25.6442 16.2581 29.2969C15.8438 31.9886 13.5471 33.9877 10.8137 33.9877ZM15.0961 35.9233L15.0962 34.7003C16.2804 33.879 17.2219 32.7238 17.7836 31.3577C17.9056 32.2406 18.0857 33.077 18.3632 33.8074C17.9578 34.3051 16.9982 35.2334 15.0961 35.9233ZM24.8916 19.2881V16.7441C24.8916 16.5897 24.857 16.4373 24.7904 16.2982C24.1354 14.9319 23.8033 13.4821 23.8033 11.9891V9.79644C23.8033 5.52549 27.2526 2.05092 31.4923 2.05092H45.7116V11.9893C45.7116 13.4822 45.3795 14.932 44.7245 16.2984C44.6578 16.4374 44.6232 16.5899 44.6232 16.7442V19.6638C44.6232 22.4407 43.5151 25.0164 41.5029 26.9164C41.2517 27.1534 40.9909 27.3757 40.7214 27.5829C40.7154 27.587 40.7097 27.5915 40.7039 27.5957C38.8189 29.0374 36.51 29.7381 34.0988 29.5807C28.9358 29.244 24.8916 24.723 24.8916 19.2881ZM30.623 39.9205C30.6159 39.9276 30.5995 39.9444 30.5662 39.9409C30.5331 39.9376 30.5201 39.918 30.5145 39.9096L27.3488 35.1261L28.3676 34.0478L33.17 37.3546L30.623 39.9205ZM34.7574 35.9635L29.2451 32.1679V30.2538C30.6714 31.0305 32.2684 31.5163 33.967 31.627C34.2353 31.6445 34.502 31.6531 34.7679 31.6531C36.7142 31.6531 38.5875 31.1845 40.2697 30.2948V32.1679L34.7574 35.9635ZM39.0003 39.9098C38.9948 39.9183 38.9817 39.9379 38.9486 39.9412C38.9154 39.9454 38.8991 39.9278 38.8919 39.9208L36.3448 37.355L41.1473 34.048L42.1662 35.1263L39.0003 39.9098ZM57.5874 39.0447L55.2775 36.7179C55.3178 36.5334 55.3406 36.3315 55.3404 36.1088L55.3403 35.6761C55.9813 35.888 56.6569 36.0138 57.356 36.0348C57.4345 36.0373 57.5122 36.0384 57.5904 36.0384C58.3629 36.0384 59.117 35.9208 59.8347 35.6964V36.1093C59.8347 36.3139 59.8602 36.5143 59.9083 36.7069L57.5874 39.0447ZM61.426 32.4201C60.3472 33.4748 58.922 34.0318 57.4172 33.985C54.4715 33.896 52.0751 31.2823 52.0751 28.159V26.2421C52.0751 26.0828 52.0383 25.9258 51.9676 25.7835L51.3388 24.5167C51.1085 24.0525 50.9868 23.533 50.9868 23.014V22.9529C50.9868 20.4955 52.9714 18.4964 55.4107 18.4964H64.1882V22.7552C64.1882 23.4434 64.0267 24.1326 63.7212 24.7483L63.2074 25.7835C63.1366 25.926 63.0999 26.0828 63.0999 26.2421V28.4348C63.0999 29.9496 62.5054 31.3649 61.426 32.4201Z" fill="#0071E3"/>
<path d="M64.1175 42.7583C63.5554 42.7583 63.0996 43.2174 63.0996 43.7837V50.3619C63.0996 50.9282 63.5554 51.3873 64.1175 51.3873C64.6797 51.3873 65.1354 50.9282 65.1354 50.3619V43.7837C65.1354 43.2175 64.6797 42.7583 64.1175 42.7583Z" fill="#0071E3"/>
<path d="M5.37142 44.1138C4.80927 44.1138 4.35352 44.5729 4.35352 45.1392V50.3619C4.35352 50.9282 4.80927 51.3873 5.37142 51.3873C5.93358 51.3873 6.38933 50.9282 6.38933 50.3619V45.1392C6.38933 44.573 5.93358 44.1138 5.37142 44.1138Z" fill="#0071E3"/>
<path d="M43.096 12.3606C39.2461 8.48245 31.1912 9.22387 27.9065 9.72262C26.8719 9.87971 26.1211 10.7617 26.1211 11.8197V14.182C26.1211 14.7483 26.5768 15.2074 27.139 15.2074C27.7012 15.2074 28.1569 14.7483 28.1569 14.182V11.8196C28.1569 11.7847 28.1797 11.7549 28.2101 11.7503C29.5221 11.5511 32.1257 11.2438 34.8231 11.4249C37.9973 11.6378 40.2965 12.4405 41.6565 13.8106C42.054 14.2111 42.6986 14.2111 43.096 13.8106C43.4935 13.4102 43.4935 12.7609 43.096 12.3606Z" fill="#0071E3"/>
<path d="M22.7855 44.9512C22.2233 44.9512 21.7676 45.4103 21.7676 45.9766V50.3621C21.7676 50.9284 22.2233 51.3875 22.7855 51.3875C23.3476 51.3875 23.8034 50.9284 23.8034 50.3621V45.9766C23.8034 45.4104 23.3476 44.9512 22.7855 44.9512Z" fill="#0071E3"/>
<path d="M46.7298 44.9512C46.1677 44.9512 45.7119 45.4103 45.7119 45.9766V50.3621C45.7119 50.9284 46.1677 51.3875 46.7298 51.3875C47.292 51.3875 47.7477 50.9284 47.7477 50.3621V45.9766C47.7477 45.4104 47.292 44.9512 46.7298 44.9512Z" fill="#0071E3"/>
</svg>
