<svg width="70" height="70" viewBox="0 0 70 70" fill="none" xmlns="http://www.w3.org/2000/svg">
<path d="M8.72976 19.2753H29.5075L33.8383 23.5746C34.1369 23.8708 34.533 24.0277 34.9371 24.0277C35.1379 24.0277 35.3406 23.9891 35.5342 23.9094C36.1178 23.6694 36.4947 23.1092 36.4947 22.4823V19.0582C38.0983 18.51 39.2178 16.9882 39.2178 15.2713V4.00404C39.2178 1.79613 37.4084 0 35.1843 0H8.72976C6.50562 0 4.69629 1.79613 4.69629 4.00404V4.82678C4.69629 5.38907 5.15525 5.84468 5.72168 5.84468C6.28811 5.84468 6.74707 5.38907 6.74707 4.82678V4.00404C6.74707 2.91881 7.63656 2.03581 8.72976 2.03581H35.1843C36.2775 2.03581 37.167 2.91881 37.167 4.00404V15.2713C37.167 16.1962 36.5066 17.006 35.5969 17.1966C34.9288 17.3364 34.444 17.9335 34.444 18.6161V21.2968L30.7862 17.6658C30.5099 17.391 30.142 17.2395 29.7507 17.2395H8.72976C7.63656 17.2395 6.74707 16.3565 6.74707 15.2713V9.59397C6.74707 9.03168 6.28811 8.57606 5.72168 8.57606C5.15525 8.57606 4.69629 9.03168 4.69629 9.59397V15.2713C4.69629 17.4791 6.50562 19.2753 8.72976 19.2753Z" fill="#0071E3"/>
<path d="M68.9746 46.9499C69.541 46.9499 70 46.4943 70 45.932V45.1483C70 42.022 67.8895 39.2236 64.8677 38.3428L59.3082 36.7224C59.148 36.5766 58.9632 36.4554 58.7591 36.3652L57.5998 35.8524C57.2909 35.7159 56.9637 35.6467 56.6378 35.6426V33.2205C58.4552 31.8888 59.7242 29.8519 60.0189 27.5063C60.9377 27.2485 61.6129 26.4087 61.6129 25.4153V18.1309C61.6129 16.4249 60.2656 15.0254 58.5717 14.9258C58.4324 13.2818 57.04 11.9865 55.3485 11.9865H47.7356C44.3666 11.9865 41.6259 14.7072 41.6259 18.0515V25.4153C41.6259 26.4088 42.3011 27.2487 43.2199 27.5064C43.515 29.8518 44.7839 31.8886 46.601 33.2202V35.6385C46.2779 35.6446 45.9542 35.7145 45.6496 35.8502L44.5125 36.357C44.3101 36.4473 44.1268 36.5681 43.9677 36.7133L38.3745 38.3429C35.3525 39.2233 33.2417 42.022 33.2417 45.1488V50.6765C32.5287 50.0981 31.6988 49.6592 30.7923 49.395C30.7022 49.3689 31.2277 49.4742 22.8089 47.8812V47.8592C24.1391 47.6162 25.4531 47.2732 26.7377 46.8305C29.5846 45.8493 31.4375 42.9422 29.9868 38.1384C29.5071 36.5499 29.2637 34.9037 29.2631 33.2414C29.2612 27.0243 24.1646 21.9665 17.9018 21.9665H17.9017C11.639 21.9665 6.5424 27.0245 6.54035 33.2458C6.53981 34.904 6.29645 36.5502 5.81684 38.1384C4.38115 42.8936 6.17668 45.8347 9.06582 46.8305C10.3495 47.2729 11.6624 47.6156 12.9914 47.8587C4.60893 49.4696 5.09961 49.3697 5.0117 49.3953C2.0609 50.2548 0 52.9874 0 56.0405V65.6507C0 67.7759 1.73373 69.4865 3.86395 69.4865H3.87188C3.88951 69.4865 66.1186 69.4243 66.1362 69.4243C68.2668 69.4243 70.0001 67.7037 70.0001 65.5886V50.6906C70.0001 50.1283 69.5412 49.6727 68.9748 49.6727C68.4083 49.6727 67.9494 50.1283 67.9494 50.6906V53.0451H55.9636L54.1495 45.0153L55.131 43.2692C55.5205 43.1944 55.8935 43.0094 56.2018 42.7154L59.3529 39.6693C59.555 39.474 59.7107 39.243 59.8154 38.992L64.2902 40.2962C66.4445 40.924 67.9492 42.9194 67.9492 45.1483V45.932C67.9492 46.4943 68.4082 46.9499 68.9746 46.9499ZM43.6767 18.0514C43.6767 15.8297 45.4975 14.0221 47.7356 14.0221H55.3485C56.0012 14.0221 56.5324 14.5493 56.5324 15.1972C56.5324 16.1669 57.327 16.9557 58.3039 16.9557H58.3782C59.0309 16.9557 59.5621 17.4829 59.5621 18.1308V21.9018H59.0609C58.7787 21.9018 58.5491 21.6739 58.5491 21.3938V20.5587C58.5491 18.7601 56.7701 17.505 55.07 18.0627C52.8456 18.7924 50.3958 18.7926 48.1685 18.0623C46.4532 17.4994 44.6898 18.7653 44.6898 20.5584V21.3938C44.6898 21.6739 44.4601 21.9018 44.1779 21.9018H43.6769V18.0514H43.6767ZM45.2181 26.8638C45.1711 26.1282 44.5545 25.5519 43.8143 25.5519C43.7382 25.5519 43.6766 25.4905 43.6766 25.4152V23.9376H44.1777C45.5908 23.9376 46.7403 22.7965 46.7403 21.3938V20.5584C46.7403 20.1554 47.1346 19.8676 47.528 19.9962C50.1674 20.8619 53.0744 20.8616 55.7136 19.9956C56.1005 19.868 56.4982 20.154 56.4982 20.5586V21.3937C56.4982 22.7963 57.6477 23.9375 59.0607 23.9375H59.5619V25.4151C59.5619 25.4904 59.5001 25.5517 59.4241 25.5517C58.6841 25.5517 58.0675 26.128 58.0204 26.864C57.8081 30.207 54.9964 32.8257 51.6191 32.8257C48.2422 32.8258 45.4306 30.2071 45.2181 26.8638ZM52.461 43.8409H50.76L50.0998 42.7153L51.6971 41.3908L53.1467 42.6212L52.461 43.8409ZM53.8616 53.0451H49.3719L50.9913 45.8768H52.242L53.8616 53.0451ZM51.6936 38.7791L48.6519 36.5227V34.3273C49.5775 34.6729 50.5781 34.8615 51.6194 34.8615C52.6608 34.8615 53.6614 34.6729 54.587 34.3273V36.5549L51.6936 38.7791ZM46.4897 37.7073C46.618 37.6499 46.7675 37.6665 46.8805 37.7501C47.8979 38.5048 48.579 39.0101 50.0515 40.1024L48.5777 41.3245C48.5703 41.3307 48.5618 41.3347 48.5531 41.337C48.5487 41.3376 48.5443 41.3383 48.5399 41.3389C48.5242 41.3395 48.5085 41.3343 48.4962 41.3235L45.364 38.2092L46.4897 37.7073ZM9.73862 44.9072C7.14656 44.0137 6.99645 41.3214 7.78162 38.7228C8.31838 36.945 8.59086 35.1024 8.59141 33.242C8.59318 28.1471 12.7698 24.0022 17.9021 24.0022C23.0344 24.0022 27.211 28.1471 27.2126 33.2462C27.2132 35.1022 27.4857 36.9447 28.0226 38.7228C28.8076 41.3221 28.6573 44.0139 26.0654 44.9072C20.8012 46.7213 15.0028 46.7216 9.73862 44.9072ZM20.7583 48.1537V48.5137C19.6349 50.9132 16.1499 50.9032 15.0428 48.4918V48.1536C16.92 48.3507 18.8356 48.3556 20.7583 48.1537ZM33.7531 67.1274C33.7531 67.2685 33.6414 67.3836 33.4988 67.3893C33.4953 67.3895 33.4917 67.3896 33.4882 67.3899C33.4875 67.3899 33.4868 67.3899 33.4861 67.39C33.4786 67.3903 33.4708 67.3907 33.4627 67.3912L3.86764 67.4507H3.86408C2.86563 67.4507 2.05078 66.6488 2.05078 65.6507V56.0405C2.05078 53.9002 3.48537 51.9828 5.54531 51.3615L13.4442 49.845C15.4316 53.1783 20.3637 53.1682 22.3537 49.8672L30.2605 51.3616C32.3784 52.001 33.7531 53.9344 33.7531 56.0402V67.1274ZM35.2926 45.1486C35.2926 42.9194 36.7974 40.924 38.9523 40.2962L43.4623 38.9821C43.5634 39.2243 43.712 39.4479 43.9039 39.6386L47.0534 42.7698C47.0568 42.7732 47.0604 42.7766 47.0638 42.78C47.3572 43.0635 47.7125 43.2466 48.0862 43.3279L49.0819 45.0255L47.2702 53.0449H35.2926V45.1486ZM67.9492 55.0809V65.5886C67.9492 66.581 67.1359 67.3885 66.1361 67.3885H35.7893C35.799 67.3029 35.8039 67.2157 35.8039 67.1274V56.0403C35.8039 55.7183 35.7814 55.398 35.7366 55.0811C40.2376 55.0809 60.8605 55.0809 67.9492 55.0809ZM54.776 41.2521C54.7638 41.2636 54.7485 41.2694 54.733 41.2694C54.725 41.2678 54.7169 41.2662 54.7088 41.2647C54.703 41.2622 54.6973 41.259 54.6922 41.2547L53.3285 40.0972L56.3701 37.7593C56.483 37.6722 56.6345 37.6542 56.7651 37.7119L57.9128 38.2197L54.776 41.2521Z" fill="#0071E3"/>
</svg>
