<svg width="56" height="70" viewBox="0 0 56 70" fill="none" xmlns="http://www.w3.org/2000/svg">
<path d="M8.58594 24.609C8.58594 25.1713 9.04518 25.6272 9.6116 25.6272H42.0159C42.5824 25.6272 43.0415 25.1713 43.0415 24.609C43.0415 24.0467 42.5823 23.5908 42.0159 23.5908H9.6116C9.04504 23.5907 8.58594 24.0466 8.58594 24.609Z" fill="#0071E3"/>
<path d="M9.6116 33.7052H42.0159C42.5824 33.7052 43.0415 33.2493 43.0415 32.687C43.0415 32.1247 42.5823 31.6688 42.0159 31.6688H9.6116C9.04504 31.6688 8.58594 32.1247 8.58594 32.687C8.58594 33.2493 9.04504 33.7052 9.6116 33.7052Z" fill="#0071E3"/>
<path d="M9.6116 41.7833H42.0159C42.5824 41.7833 43.0415 41.3274 43.0415 40.7651C43.0415 40.2028 42.5823 39.7469 42.0159 39.7469H9.6116C9.04504 39.7469 8.58594 40.2028 8.58594 40.7651C8.58594 41.3274 9.04504 41.7833 9.6116 41.7833Z" fill="#0071E3"/>
<path d="M9.6116 49.8612H25.8137C26.3803 49.8612 26.8394 49.4053 26.8394 48.843C26.8394 48.2807 26.3802 47.8248 25.8137 47.8248H9.6116C9.04504 47.8248 8.58594 48.2807 8.58594 48.843C8.58594 49.4053 9.04504 49.8612 9.6116 49.8612Z" fill="#0071E3"/>
<path d="M42.6746 14.7324C43.6565 14.7324 44.4555 13.9394 44.4555 12.9645V7.54085C44.4555 6.56597 43.6565 5.77295 42.6746 5.77295H27.9352C26.9533 5.77295 26.1543 6.56597 26.1543 7.54085V12.9645C26.1543 13.9394 26.9533 14.7324 27.9352 14.7324H42.6746ZM28.2058 7.80944H42.4039V12.6959H28.2058V7.80944Z" fill="#0071E3"/>
<path d="M51.6111 6.07853H49.9901V3.95395C49.9901 1.77374 48.2032 0 46.0071 0H13.3643C12.3003 0 11.2999 0.411234 10.5479 1.15811L1.16676 10.4707C0.414258 11.2175 0 12.2105 0 13.2666V22.2341C0 22.7963 0.459239 23.2522 1.02566 23.2522C1.59209 23.2522 2.05133 22.7963 2.05133 22.2341V13.2666C2.05133 13.2001 2.05502 13.1341 2.06172 13.0688H9.78346C11.6479 13.0688 13.1648 11.563 13.1648 9.71218V2.04681C13.2305 2.04016 13.297 2.03649 13.3641 2.03649H46.007C47.0721 2.03649 47.9387 2.89669 47.9387 3.95409V46.4619C47.9387 47.0241 48.3979 47.48 48.9643 47.48C49.5308 47.48 49.99 47.0241 49.99 46.4619V8.11502H51.6109C52.6761 8.11502 53.5426 8.97522 53.5426 10.0326V65.5351C53.5426 66.5925 52.6761 67.4527 51.6109 67.4527H9.58713C8.52195 67.4527 7.65543 66.5925 7.65543 65.5351V63.4105H46.007C48.2032 63.4105 49.99 61.6368 49.99 59.4566V51.2231C49.99 50.6608 49.5308 50.2049 48.9643 50.2049C48.3979 50.2049 47.9387 50.6608 47.9387 51.2231V59.4566C47.9387 60.514 47.0721 61.3742 46.007 61.3742H3.98316C2.91799 61.3742 2.05147 60.514 2.05147 59.4566V26.9943C2.05147 26.432 1.59223 25.9762 1.0258 25.9762C0.459375 25.9762 0.000137165 26.432 0.000137165 26.9943V59.4566C0.000137165 61.6368 1.78705 63.4105 3.98316 63.4105H5.6041V65.5351C5.6041 67.7153 7.39102 69.4891 9.58713 69.4891H51.6111C53.8073 69.4891 55.5941 67.7153 55.5941 65.5351V10.0325C55.5942 7.85226 53.8073 6.07853 51.6111 6.07853ZM9.7836 11.0323H3.50219L11.1135 3.47649V9.71218C11.1135 10.4401 10.5168 11.0323 9.7836 11.0323Z" fill="#0071E3"/>
</svg>
