<svg width="204" height="59" viewBox="0 0 204 59" fill="none" xmlns="http://www.w3.org/2000/svg">
<path d="M156.526 1H171L135.474 54H121L156.526 1Z" fill="#D2D2D2" fill-opacity="0.1"/>
<path d="M36.2368 1H51L14.7632 54H0L36.2368 1Z" fill="#D2D2D2" fill-opacity="0.1"/>
<path d="M51.1698 1H157L120.83 54H15L51.1698 1Z" fill="white" fill-opacity="0.5"/>
<path d="M60.0205 37.5518C60.0205 36.2985 59.5729 35.3219 58.6777 34.6221C57.7988 33.9222 56.2445 33.1979 54.0146 32.4492C51.7848 31.7005 49.9619 30.9762 48.5459 30.2764C43.9398 28.014 41.6367 24.9053 41.6367 20.9502C41.6367 18.9808 42.2064 17.2474 43.3457 15.75C44.5013 14.2363 46.1289 13.0645 48.2285 12.2344C50.3281 11.388 52.6882 10.9648 55.3086 10.9648C57.8639 10.9648 60.1507 11.4206 62.1689 12.332C64.2035 13.2435 65.7822 14.5456 66.9053 16.2383C68.0283 17.9147 68.5898 19.8353 68.5898 22H60.0449C60.0449 20.5514 59.5973 19.4284 58.7021 18.6309C57.8232 17.8333 56.627 17.4346 55.1133 17.4346C53.5833 17.4346 52.3708 17.7764 51.4756 18.46C50.5967 19.1273 50.1572 19.9818 50.1572 21.0234C50.1572 21.9349 50.6455 22.765 51.6221 23.5137C52.5986 24.2461 54.3158 25.0111 56.7734 25.8086C59.2311 26.5898 61.2493 27.4362 62.8281 28.3477C66.6693 30.5612 68.5898 33.613 68.5898 37.5029C68.5898 40.6117 67.418 43.0531 65.0742 44.8271C62.7305 46.6012 59.516 47.4883 55.4307 47.4883C52.5498 47.4883 49.9375 46.9756 47.5938 45.9502C45.2663 44.9085 43.5085 43.4925 42.3203 41.7021C41.1484 39.8955 40.5625 37.8203 40.5625 35.4766H49.1562C49.1562 37.3809 49.6445 38.7887 50.6211 39.7002C51.6139 40.5954 53.2171 41.043 55.4307 41.043C56.8467 41.043 57.9616 40.7419 58.7754 40.1396C59.6055 39.5212 60.0205 38.6585 60.0205 37.5518ZM82.1885 14.0166V20.584H86.5342V26.2969H82.1885V38.3818C82.1885 39.3747 82.3675 40.0664 82.7256 40.457C83.0837 40.8477 83.7917 41.043 84.8496 41.043C85.6634 41.043 86.347 40.9941 86.9004 40.8965V46.7803C85.4193 47.2523 83.873 47.4883 82.2617 47.4883C79.4297 47.4883 77.3382 46.821 75.9873 45.4863C74.6364 44.1517 73.9609 42.1253 73.9609 39.4072V26.2969H70.5918V20.584H73.9609V14.0166H82.1885ZM104.674 47C104.381 46.4629 104.12 45.6735 103.893 44.6318C102.379 46.5361 100.263 47.4883 97.5449 47.4883C95.0547 47.4883 92.9388 46.7396 91.1973 45.2422C89.4557 43.7285 88.585 41.8324 88.585 39.5537C88.585 36.6891 89.6429 34.5244 91.7588 33.0596C93.8747 31.5947 96.9508 30.8623 100.987 30.8623H103.526V29.4707C103.526 27.0456 102.477 25.833 100.377 25.833C98.4238 25.833 97.4473 26.7933 97.4473 28.7139H89.2197C89.2197 26.1585 90.3021 24.0833 92.4668 22.4883C94.6478 20.8932 97.4229 20.0957 100.792 20.0957C104.161 20.0957 106.822 20.9176 108.775 22.5615C110.729 24.2054 111.729 26.4596 111.778 29.3242V41.0186C111.811 43.4437 112.185 45.2992 112.901 46.585V47H104.674ZM99.5225 41.6289C100.548 41.6289 101.394 41.4092 102.062 40.9697C102.745 40.5303 103.233 40.0339 103.526 39.4805V35.2568H101.134C98.2692 35.2568 96.8369 36.5426 96.8369 39.1143C96.8369 39.863 97.0892 40.4733 97.5938 40.9453C98.0983 41.401 98.7412 41.6289 99.5225 41.6289ZM118.175 47V26.2969H114.342V20.584H118.175V18.4844C118.175 15.4733 119.062 13.1377 120.836 11.4775C122.61 9.81738 125.1 8.9873 128.307 8.9873C129.479 8.9873 130.764 9.1582 132.164 9.5L132.188 15.5547C131.684 15.4082 131.008 15.335 130.162 15.335C127.672 15.335 126.427 16.4092 126.427 18.5576V20.584H131.578V26.2969H126.427V47H118.175ZM136.29 47V26.2969H132.457V20.584H136.29V18.4844C136.29 15.4733 137.177 13.1377 138.951 11.4775C140.725 9.81738 143.215 8.9873 146.422 8.9873C147.594 8.9873 148.88 9.1582 150.279 9.5L150.304 15.5547C149.799 15.4082 149.124 15.335 148.277 15.335C145.787 15.335 144.542 16.4092 144.542 18.5576V20.584H149.693V26.2969H144.542V47H136.29Z" fill="#313131"/>
<path d="M161.266 47H153.014V9.5H161.266V47ZM175.035 47H166.783V20.584H175.035V47ZM166.295 13.7725C166.295 12.6006 166.718 11.6403 167.564 10.8916C168.411 10.1429 169.509 9.76855 170.86 9.76855C172.211 9.76855 173.31 10.1429 174.156 10.8916C175.003 11.6403 175.426 12.6006 175.426 13.7725C175.426 14.9443 175.003 15.9046 174.156 16.6533C173.31 17.402 172.211 17.7764 170.86 17.7764C169.509 17.7764 168.411 17.402 167.564 16.6533C166.718 15.9046 166.295 14.9443 166.295 13.7725ZM190.831 27.8594L194.664 20.584H203.209L196.251 33.4502L203.551 47H194.957L190.807 39.1875L186.729 47H178.087L185.411 33.4502L178.478 20.584H187.12L190.831 27.8594Z" fill="#FDFDFD"/>
</svg>
