<svg width="117" height="36" viewBox="0 0 117 36" fill="none" xmlns="http://www.w3.org/2000/svg">
<path d="M92.3203 0H101L79.6953 36H71.0156L92.3203 0Z" fill="#D2D2D2" fill-opacity="0.1"/>
<path d="M21.3047 0H29.9844L8.67969 36H0L21.3047 0Z" fill="#D2D2D2" fill-opacity="0.1"/>
<path d="M29.9844 0H92.3203L71.0156 36H8.67969L29.9844 0Z" fill="white" fill-opacity="0.5"/>
<path d="M30.6123 22.3311C30.6123 21.5791 30.3438 20.9932 29.8066 20.5732C29.2793 20.1533 28.3467 19.7188 27.0088 19.2695C25.6709 18.8203 24.5771 18.3857 23.7275 17.9658C20.9639 16.6084 19.582 14.7432 19.582 12.3701C19.582 11.1885 19.9238 10.1484 20.6074 9.25C21.3008 8.3418 22.2773 7.63867 23.5371 7.14062C24.7969 6.63281 26.2129 6.37891 27.7852 6.37891C29.3184 6.37891 30.6904 6.65234 31.9014 7.19922C33.1221 7.74609 34.0693 8.52734 34.7432 9.54297C35.417 10.5488 35.7539 11.7012 35.7539 13H30.627C30.627 12.1309 30.3584 11.457 29.8213 10.9785C29.2939 10.5 28.5762 10.2607 27.668 10.2607C26.75 10.2607 26.0225 10.4658 25.4854 10.876C24.958 11.2764 24.6943 11.7891 24.6943 12.4141C24.6943 12.9609 24.9873 13.459 25.5732 13.9082C26.1592 14.3477 27.1895 14.8066 28.6641 15.2852C30.1387 15.7539 31.3496 16.2617 32.2969 16.8086C34.6016 18.1367 35.7539 19.9678 35.7539 22.3018C35.7539 24.167 35.0508 25.6318 33.6445 26.6963C32.2383 27.7607 30.3096 28.293 27.8584 28.293C26.1299 28.293 24.5625 27.9854 23.1562 27.3701C21.7598 26.7451 20.7051 25.8955 19.9922 24.8213C19.2891 23.7373 18.9375 22.4922 18.9375 21.0859H24.0938C24.0938 22.2285 24.3867 23.0732 24.9727 23.6201C25.5684 24.1572 26.5303 24.4258 27.8584 24.4258C28.708 24.4258 29.377 24.2451 29.8652 23.8838C30.3633 23.5127 30.6123 22.9951 30.6123 22.3311ZM43.9131 8.20996V12.1504H46.5205V15.5781H43.9131V22.8291C43.9131 23.4248 44.0205 23.8398 44.2354 24.0742C44.4502 24.3086 44.875 24.4258 45.5098 24.4258C45.998 24.4258 46.4082 24.3965 46.7402 24.3379V27.8682C45.8516 28.1514 44.9238 28.293 43.957 28.293C42.2578 28.293 41.0029 27.8926 40.1924 27.0918C39.3818 26.291 38.9766 25.0752 38.9766 23.4443V15.5781H36.9551V12.1504H38.9766V8.20996H43.9131ZM57.4043 28C57.2285 27.6777 57.0723 27.2041 56.9355 26.5791C56.0273 27.7217 54.7578 28.293 53.127 28.293C51.6328 28.293 50.3633 27.8438 49.3184 26.9453C48.2734 26.0371 47.751 24.8994 47.751 23.5322C47.751 21.8135 48.3857 20.5146 49.6553 19.6357C50.9248 18.7568 52.7705 18.3174 55.1924 18.3174H56.7158V17.4824C56.7158 16.0273 56.0859 15.2998 54.8262 15.2998C53.6543 15.2998 53.0684 15.876 53.0684 17.0283H48.1318C48.1318 15.4951 48.7812 14.25 50.0801 13.293C51.3887 12.3359 53.0537 11.8574 55.0752 11.8574C57.0967 11.8574 58.6934 12.3506 59.8652 13.3369C61.0371 14.3232 61.6377 15.6758 61.667 17.3945V24.4111C61.6865 25.8662 61.9111 26.9795 62.3408 27.751V28H57.4043ZM54.3135 24.7773C54.9287 24.7773 55.4365 24.6455 55.8369 24.3818C56.2471 24.1182 56.54 23.8203 56.7158 23.4883V20.9541H55.2803C53.5615 20.9541 52.7021 21.7256 52.7021 23.2686C52.7021 23.7178 52.8535 24.084 53.1562 24.3672C53.459 24.6406 53.8447 24.7773 54.3135 24.7773ZM65.5049 28V15.5781H63.2051V12.1504H65.5049V10.8906C65.5049 9.08398 66.0371 7.68262 67.1016 6.68652C68.166 5.69043 69.6602 5.19238 71.584 5.19238C72.2871 5.19238 73.0586 5.29492 73.8984 5.5L73.9131 9.13281C73.6104 9.04492 73.2051 9.00098 72.6973 9.00098C71.2031 9.00098 70.4561 9.64551 70.4561 10.9346V12.1504H73.5469V15.5781H70.4561V28H65.5049ZM76.374 28V15.5781H74.0742V12.1504H76.374V10.8906C76.374 9.08398 76.9062 7.68262 77.9707 6.68652C79.0352 5.69043 80.5293 5.19238 82.4531 5.19238C83.1562 5.19238 83.9277 5.29492 84.7676 5.5L84.7822 9.13281C84.4795 9.04492 84.0742 9.00098 83.5664 9.00098C82.0723 9.00098 81.3252 9.64551 81.3252 10.9346V12.1504H84.416V15.5781H81.3252V28H76.374Z" fill="#313131"/>
<path d="M91.3594 28H86.4082V5.5H91.3594V28ZM99.6211 28H94.6699V12.1504H99.6211V28ZM94.377 8.06348C94.377 7.36035 94.6309 6.78418 95.1387 6.33496C95.6465 5.88574 96.3057 5.66113 97.1162 5.66113C97.9268 5.66113 98.5859 5.88574 99.0938 6.33496C99.6016 6.78418 99.8555 7.36035 99.8555 8.06348C99.8555 8.7666 99.6016 9.34277 99.0938 9.79199C98.5859 10.2412 97.9268 10.4658 97.1162 10.4658C96.3057 10.4658 95.6465 10.2412 95.1387 9.79199C94.6309 9.34277 94.377 8.7666 94.377 8.06348ZM109.099 16.5156L111.398 12.1504H116.525L112.351 19.8701L116.73 28H111.574L109.084 23.3125L106.638 28H101.452L105.847 19.8701L101.687 12.1504H106.872L109.099 16.5156Z" fill="#FDFDFD"/>
</svg>
