<svg width="114" height="83" viewBox="0 0 114 83" fill="none" xmlns="http://www.w3.org/2000/svg">
<path d="M88.8794 27.3817L89.733 24.6578L86.9092 24.7461C86.6708 24.7461 84.9368 24.697 83.2544 23.4809C83.3798 23.4931 83.5052 23.5104 83.6331 23.5104C85.3646 23.5104 87.0397 22.4707 87.7111 20.9849L88.9262 18.3001C87.4037 18.3198 86.0115 18.1286 86.0115 18.1286C85.9992 18.1261 84.9023 17.9864 83.6331 16.6943C82.723 15.7675 81.5966 15.2771 80.3766 15.2771C79.8428 15.2771 79.3657 15.3728 78.9549 15.5028C79.0188 15.2845 79.0803 15.0638 79.1148 14.8358C79.5034 12.3228 77.8801 10.4054 77.8801 10.4079L75.7574 7.78686L74.4415 10.8664C74.4367 10.8762 74.1045 11.597 73.5093 11.9501C73.3299 11.0454 72.8895 10.0279 71.9475 9.05447C70.1716 7.22049 68.0096 6.94845 66.8783 6.94845C66.3543 6.94845 65.9804 7.0048 65.8894 7.01955L63.3264 7.52213C63.4741 6.95086 63.7889 5.95791 64.3644 5.06291L65.7788 2.86614L62.2196 3.27064L61.0857 0.870416L58.8917 1.99824L56.8626 0L54.8384 1.99824L52.6369 0.870416L51.5055 3.27064L47.9489 2.86614L49.3658 5.06291C49.9413 5.95791 50.2561 6.94845 50.4012 7.51962L47.9564 7.03909L47.8727 7.02435C47.7497 7.0048 47.3784 6.94845 46.8519 6.94845C45.7206 6.94845 43.5586 7.22301 41.7876 9.05447C40.843 10.0254 40.4028 11.0454 40.2208 11.9501C39.6305 11.6019 39.3009 10.8909 39.3009 10.8909L37.9825 7.79429L35.8255 10.4324C35.5623 10.7732 34.2612 12.5752 34.6152 14.8407C34.6523 15.0663 34.7113 15.2869 34.7753 15.5051C34.367 15.3752 33.8896 15.2796 33.356 15.2796C32.1361 15.2796 31.0095 15.77 30.0971 16.6968C28.8327 17.984 27.7408 18.1286 27.7506 18.1286C27.7506 18.1286 26.5969 18.3346 24.8113 18.3027L26.0191 20.9874C26.6904 22.4757 28.368 23.5127 30.0971 23.5127C30.2274 23.5127 30.3528 23.4956 30.4807 23.4833C28.8032 24.6994 27.0693 24.7484 26.8602 24.7509L23.9824 24.6578L24.8531 27.3793C25.2909 28.7817 26.7543 31.106 29.5583 31.3561C29.2533 32.6309 28.577 34.0579 27.0914 34.6733L24.9491 35.5535L26.1173 37.5812C26.7765 38.6748 28.3237 39.9546 30.5274 39.9546C31.0046 39.952 31.4645 39.9055 31.9074 39.8124C32.0204 40.3125 32.1631 40.8126 32.3304 41.308C32.9871 43.2545 32.4213 44.613 32.414 44.6277L31.3563 46.8367L33.7175 47.4571C33.7471 47.4669 34.4603 47.6604 35.3532 47.6604C35.7591 47.6604 36.1452 47.6189 36.5093 47.5331C36.7848 47.4692 37.0479 47.3834 37.3012 47.2806C37.6062 47.8273 37.9777 48.3249 38.4106 48.7711C39.9232 50.3183 42.0655 51.1028 44.781 51.1028H44.7908L46.729 51.0784L42.7248 52.7358L45.7648 54.1996C46.8692 54.7364 48.1802 55.3714 49.5132 55.8569L49.1345 56.8916L50.1823 57.3672C50.2758 57.4089 52.2902 58.3087 55.6403 58.4999C55.6403 58.4999 56.4494 58.5367 56.8945 58.5367C57.3398 58.5367 58.1391 58.4975 58.1391 58.4975C61.467 58.3014 63.4667 57.4113 63.5602 57.3672L64.6103 56.8891L64.2267 55.852C65.5992 55.3517 66.9569 54.6922 68.0145 54.1775L70.998 52.7334L67.0061 51.0734L68.9517 51.098C71.6695 51.098 73.8144 50.3133 75.3245 48.7638C75.755 48.3201 76.1263 47.8224 76.4339 47.2757C76.6872 47.3787 76.9528 47.4644 77.2282 47.5281C77.5898 47.6139 77.976 47.6556 78.3818 47.6556C79.2599 47.6556 79.9805 47.4619 80.0003 47.4571L82.3713 46.8318L81.3382 44.6644C81.3137 44.608 80.748 43.2522 81.4047 41.303C81.572 40.8053 81.7121 40.3051 81.8253 39.8074C82.2705 39.9007 82.7354 39.9496 83.2151 39.9496C86.0213 39.9496 87.3669 37.9808 87.6276 37.5542L88.7836 35.5487L86.6413 34.671C85.1532 34.0556 84.4792 32.6261 84.1768 31.3537C86.9413 31.1183 88.4269 28.794 88.8794 27.3817ZM50.5882 8.45874L50.5587 8.46605L50.5831 8.43415L50.5882 8.45874Z" fill="white"/>
<path d="M56.8651 8.33862C54.5973 8.34114 52.8977 9.0816 52.5264 9.95201L56.8651 11.6584L61.2039 9.95201C60.835 9.0816 59.1353 8.34114 56.8651 8.33862Z" fill="white"/>
<path d="M56.9088 53.513H56.9038H56.8669H56.8252H56.8227C55.4478 53.5228 53.5563 53.2408 52.6438 52.9761L51.5469 55.9354C52.2699 56.1927 54.7198 56.6831 56.8669 56.6831C59.0092 56.6831 61.4616 56.1903 62.1822 55.9354L61.0877 52.9761C60.1726 53.2433 58.2836 53.5228 56.9088 53.513Z" fill="white"/>
<path d="M65.21 50.5708C64.3933 51.0317 62.5709 51.7231 61.5107 52.0444L62.4011 54.4888C64.0417 54.0426 65.3945 53.5203 66.5136 52.9613L64.6663 52.3484L65.21 50.5708Z" fill="white"/>
<path d="M48.5213 50.5708L49.0674 52.3484L47.2178 52.9613C48.3344 53.5203 49.6946 54.0426 51.3277 54.4888L52.2182 52.0444C51.163 51.7231 49.3379 51.0294 48.5213 50.5708Z" fill="white"/>
<path d="M56.8655 5.50934C58.5748 5.50934 60.2524 5.91625 61.5411 6.63225C61.6593 6.23744 61.824 5.75931 62.0479 5.25924L61.5609 5.31798L61.0492 5.37194L60.8327 4.90856L60.1811 3.53555L58.993 4.15349L58.5307 4.38883L58.1616 4.02591L56.8703 2.75098L55.5815 4.02591L55.2125 4.38883L54.7502 4.15349L53.5548 3.53555L52.9105 4.90856L52.689 5.37194L52.1773 5.31798L51.6904 5.25924C51.9142 5.76183 52.0766 6.23744 52.1971 6.63225C53.4884 5.91625 55.161 5.50934 56.8655 5.50934Z" fill="white"/>
<path d="M82.9639 21.3774C83.1852 21.4534 83.4115 21.4877 83.6353 21.4877C84.6019 21.4877 85.5366 20.8649 85.8588 20.1515C85.8588 20.1515 84.0854 20.0436 82.1793 18.1141C81.5717 17.4889 80.9297 17.3025 80.3788 17.3025C79.5228 17.3025 78.8809 17.7537 78.8809 17.7537C81.183 18.9747 81.6528 20.9361 82.9639 21.3774Z" fill="white"/>
<path d="M30.0941 21.4877C30.3179 21.4877 30.5443 21.4534 30.7607 21.3774C32.0767 20.9361 32.5488 18.9747 34.851 17.7537C34.851 17.7537 34.2066 17.3025 33.3555 17.3025C32.8023 17.3025 32.1602 17.4889 31.5502 18.1141C29.6464 20.0436 27.873 20.1515 27.873 20.1515C28.1904 20.8649 29.1274 21.4877 30.0941 21.4877Z" fill="white"/>
<path d="M83.5889 29.3482C83.6283 29.3506 83.6628 29.3506 83.7045 29.3506C86.1175 29.3506 86.9364 26.7738 86.9364 26.7738H86.8897C86.447 26.7738 82.8584 26.6708 80.3225 23.4564C78.6525 21.343 77.2849 19.4846 74.5818 18.7539L74.3161 18.7073L74.2572 18.4376C74.1833 18.0257 74.4662 17.6408 75.1083 17.224C78.837 14.7893 76.306 11.6853 76.306 11.6853C76.306 11.6853 75.241 14.1691 72.8575 14.1691C72.801 14.1691 72.7396 14.1666 72.6806 14.1666C72.4099 14.1519 72.1492 14.1421 71.8861 14.0858L71.4458 13.9998C71.4458 13.9998 72.1247 12.1586 70.4866 10.4669C69.2518 9.18943 67.7489 8.97363 66.8808 8.97363C66.443 8.97363 66.165 9.0301 66.165 9.0301C66.989 10.104 67.5842 11.884 66.6323 12.9824C65.8108 13.9263 63.8037 13.9728 63.8037 15.3803C63.8037 15.976 64.362 16.6723 65.3656 17.2976C68.3836 19.1927 71.3793 21.7059 72.6239 25.0746C74.1809 29.2771 72.4271 32.0647 69.9233 33.6634C69.9233 33.6634 70.708 34.3841 71.8468 34.4749C72.0779 34.497 72.3042 34.5068 72.5157 34.5068C74.9188 34.5068 76.1609 33.3839 76.1609 33.3839C76.1609 33.3839 75.9567 34.9358 74.7049 36.3774C73.5513 37.7088 72.0361 38.4909 69.7265 38.5252C69.7265 38.5252 69.6528 39.5943 70.6759 40.5185C71.3303 41.102 72.8429 41.2934 72.8429 41.2934C72.8429 41.2934 70.0118 41.8645 69.6995 46.0327C69.5297 48.2908 68.9516 49.0753 68.9516 49.0753H69.0033C75.573 49.0753 75.4032 43.4582 75.4032 43.4582C75.4032 43.4582 75.8609 45.1206 77.6933 45.5545C77.9146 45.6134 78.1507 45.6355 78.377 45.6355C78.9673 45.6355 79.4789 45.4982 79.4789 45.4982C79.4789 45.4982 78.5196 43.4803 79.4715 40.6583C80.261 38.3168 80.1331 36.581 80.1331 36.581C80.1331 36.581 81.0187 37.9147 83.2127 37.9271H83.2347C85.0623 37.9271 85.8591 36.5466 85.8591 36.5466C81.4786 34.7348 81.9116 28.8849 81.9116 28.8849C81.9116 28.8849 82.4797 29.3064 83.5889 29.3482ZM82.2706 35.458C80.4898 34.5828 79.3633 32.2584 79.0903 31.4199C78.7952 36.0293 76.5373 39.229 73.8981 42.3084C72.5281 43.9044 72.0508 45.4564 72.0508 45.4564C72.0508 45.4564 72.3141 43.6985 73.4996 42.2666C75.9617 39.3171 78.3007 35.6469 78.4754 31.4028C78.5959 28.441 77.8309 26.0382 76.638 24.0596C77.3045 26.1215 77.2112 28.6469 74.9458 31.0031C74.9458 31.0031 79.4544 25.6166 73.1504 20.095C70.6267 17.9938 67.8671 16.6968 66.4455 15.7774C71.5811 17.4472 74.0875 15.6083 74.0875 15.6083C72.4469 17.0255 70.3242 17.0009 69.0084 16.7974C69.365 16.9715 69.7363 17.1529 70.1373 17.3662C74.4662 19.71 78.3574 23.5668 79.0214 28.9093V28.8676C80.0299 34.112 82.2706 35.458 82.2706 35.458Z" fill="white"/>
<path d="M40.8876 41.2934C40.8876 41.2934 42.4003 41.1046 43.0546 40.5185C44.0753 39.5943 44.004 38.5252 44.004 38.5252C41.6919 38.4934 40.1793 37.7088 39.0182 36.3799C37.7762 34.9383 37.5696 33.3863 37.5696 33.3863C37.5696 33.3863 38.8116 34.5091 41.2122 34.5091C41.4288 34.5091 41.6525 34.4993 41.8838 34.4773C43.0225 34.3866 43.8096 33.6657 43.8096 33.6657C41.3058 32.0672 39.5496 29.2771 41.104 25.0746C42.3512 21.7083 45.3444 19.1927 48.3624 17.2976C49.3659 16.6723 49.9242 15.9784 49.9242 15.3803C49.9242 13.9728 47.9197 13.9263 47.0982 12.9824C46.1463 11.884 46.744 10.1014 47.5654 9.0301C47.5654 9.0301 47.2925 8.97363 46.8522 8.97363C45.9865 8.97363 44.4835 9.18943 43.2489 10.4669C41.6058 12.1586 42.2871 13.9998 42.2871 13.9998L41.8468 14.0858C41.5837 14.1421 41.3206 14.1519 41.0525 14.1666C40.991 14.1666 40.9368 14.1691 40.8777 14.1691C38.4894 14.1691 37.4294 11.6879 37.4294 11.6879C37.4294 11.6879 34.8984 14.7919 38.6249 17.2264C39.2667 17.6432 39.547 18.0282 39.4733 18.4401L39.4143 18.7098L39.1438 18.7563C36.4455 19.487 35.0756 21.3456 33.4055 23.459C30.8745 26.6684 27.2908 26.7738 26.8432 26.7738H26.7939C26.7939 26.7738 27.613 29.3506 30.0259 29.3506C30.0652 29.3506 30.0996 29.3506 30.1415 29.3482C31.2509 29.3089 31.8216 28.8849 31.8216 28.8849C31.8216 28.8849 32.2494 34.7323 27.8738 36.5466C27.8738 36.5466 28.6707 37.9271 30.4982 37.9271H30.5202C32.7167 37.9147 33.5998 36.581 33.5998 36.581C33.5998 36.581 33.4719 38.3168 34.2588 40.6583C35.2108 43.4803 34.2565 45.4982 34.2565 45.4982C34.2565 45.4982 34.7681 45.6355 35.3559 45.6355C35.5846 45.6355 35.8184 45.6134 36.0373 45.5545C37.8672 45.1206 38.3271 43.4582 38.3271 43.4582C38.3271 43.4582 38.1599 49.0753 44.7296 49.0753H44.7763C44.7763 49.0753 44.2008 48.2908 44.0335 46.0327C43.7186 41.8645 40.8876 41.2934 40.8876 41.2934ZM39.8324 42.3084C37.1933 39.229 34.9378 36.0293 34.6402 31.4199C34.3672 32.2561 33.2455 34.5828 31.4649 35.458C31.4649 35.458 33.703 34.112 34.7091 28.8676V28.9093C35.3756 23.5692 39.2643 19.71 43.5957 17.3662C43.9916 17.1506 44.3679 16.9689 44.7222 16.7974C43.4062 17.0009 41.2836 17.0255 39.6431 15.6083C39.6431 15.6083 42.1495 17.4472 47.2826 15.7774C45.8609 16.6968 43.1037 17.9938 40.5802 20.095C34.2737 25.6166 38.7847 31.0031 38.7847 31.0031C36.5168 28.6446 36.4258 26.1215 37.0925 24.0596C35.897 26.0407 35.1345 28.441 35.2575 31.4028C35.4297 35.6469 37.7688 39.3171 40.226 42.2666C41.414 43.6961 41.6821 45.4564 41.6821 45.4564C41.6821 45.4564 41.1999 43.9044 39.8324 42.3084Z" fill="white"/>
<path d="M52.0075 20.757C52.1157 20.8723 52.2214 20.9974 52.3223 21.1223C52.347 21.1518 52.3691 21.1787 52.3936 21.2131C52.4871 21.3382 52.5832 21.4705 52.6741 21.6054C52.6937 21.6323 52.7134 21.6643 52.7355 21.6961C52.8463 21.8628 52.9495 22.0345 53.0529 22.211C53.9999 23.8415 55.5174 24.8148 56.8628 24.8173C58.2107 24.8148 59.7233 23.8415 60.6752 22.211C60.7809 22.0296 60.8867 21.8531 60.9974 21.6887C61.0146 21.6643 61.0319 21.6422 61.0466 21.6177C61.14 21.4779 61.2384 21.3407 61.3418 21.2081C61.3639 21.1787 61.3836 21.1542 61.4033 21.1298C61.509 20.9998 61.6172 20.8723 61.7279 20.7547C61.7476 20.735 61.7624 20.7179 61.7795 20.7032C62.2616 20.2104 62.8373 19.8352 63.5898 19.6267L63.2553 19.4331H63.2356L61.9026 18.6608L60.5327 17.8787L56.8726 19.8647L56.8628 19.8572L56.8554 19.8647L53.1931 17.8787L51.8255 18.6584L50.4899 19.4307H50.4752L50.1357 19.6243C50.8908 19.8328 51.464 20.203 51.9485 20.6958C51.9706 20.7154 51.9854 20.7375 52.0075 20.757ZM55.3822 20.5977H56.9317H58.4787V21.657C58.1146 21.2131 57.4064 21.3038 57.4064 21.3038V22.8313C57.4064 22.8313 57.4335 23.5816 57.6966 23.9077H56.9317H56.1643C56.4323 23.5839 56.457 22.8313 56.457 22.8313V21.3038C56.457 21.3038 55.7511 21.2131 55.3822 21.657V20.5977Z" fill="white"/>
<path d="M56.547 18.543V12.3424L52.5869 11.0037L53.6324 17.013L56.547 18.543ZM55.6959 13.8649V14.8603L55.5041 14.7721C55.4941 14.7647 55.2138 14.7011 54.7219 14.3136C53.9102 13.6859 53.8955 13.1073 53.8955 13.1073L55.6959 13.8649Z" fill="white"/>
<path d="M60.0987 17.013L61.1392 11.0037L57.1816 12.3424V18.543L60.0987 17.013ZM58.0326 13.8649L59.833 13.1098C59.833 13.1098 59.8184 13.6884 59.0042 14.3161C58.5147 14.7034 58.2319 14.7672 58.222 14.7745L58.0302 14.8628V13.8649H58.0326Z" fill="white"/>
<path d="M50.9464 32.918C51.3325 33.0578 51.7999 33.0872 52.0385 33.0872C52.0483 33.0578 52.0606 33.021 52.073 32.9768C52.0951 32.9058 52.1147 32.8371 52.1295 32.7587C52.1958 32.4154 52.2205 32.0256 52.2253 31.7755C52.063 31.6749 51.8343 31.496 51.7064 31.2288C51.5588 30.9198 51.3498 30.7776 51.0422 30.7776C50.6439 30.7776 50.2159 31.0154 50.0339 31.1281C49.8888 31.9839 50.5208 32.7611 50.9464 32.918Z" fill="white"/>
<path d="M59.7056 29.6272C58.9701 30.424 57.5312 31.8118 57.4598 31.8829L57.3738 31.971L52.8261 31.9C52.8235 32.3488 52.7497 32.7312 52.6784 33.0107C52.6662 33.0573 52.6538 33.1064 52.6416 33.1554L58.0527 34.1239C58.616 33.7316 60.1655 32.6037 60.7656 32.1625C60.3277 31.525 60.2861 30.7698 60.3845 30.2377C60.0991 30.0538 59.8801 29.8479 59.7056 29.6272Z" fill="white"/>
<path d="M60.3226 24.1749C59.2748 25.2119 58.2689 25.5944 57.3712 25.6827C57.2088 25.6998 57.044 25.7096 56.8768 25.7096H56.8644H56.8545C56.6872 25.7096 56.5201 25.6998 56.3578 25.6827C56.2003 25.668 56.0356 25.6435 55.8707 25.6067C55.8117 25.8397 55.7378 26.3275 55.9495 26.7885C56.1389 27.2077 56.525 27.5192 57.0883 27.7251L57.2776 27.7985L57.2802 28.0021C57.2802 28.0635 57.3244 29.3825 58.7682 29.7478C59.0043 29.5051 59.2183 29.2868 59.3758 29.1054C59.0806 28.414 59.2355 27.708 59.6635 27.3622C59.6437 27.4358 59.457 29.1667 60.849 29.809L61.0777 29.9169L61.0089 30.1597C60.9867 30.2332 60.5219 31.9078 62.2067 32.5305L62.5044 32.6435L62.3716 32.9327C62.342 32.9964 61.6804 34.5166 63.2372 35.3796H66.6143V32.7071C65.4141 32.5599 64.9049 31.599 64.7746 30.9173C64.2161 30.8217 63.7834 30.5814 63.4882 30.1891C62.7798 29.26 63.3898 28.4091 63.3972 28.3625C63.3947 28.3699 63.3972 29.2771 63.958 29.8361C64.2359 30.1057 64.5656 30.3142 65.0648 30.3608L65.3108 30.3829L65.3329 30.6329C65.3379 30.6868 65.4731 31.9128 66.6168 32.1065L66.6143 26.6486C66.6143 25.8029 66.8628 24.9522 67.1604 24.1675H60.3226V24.1749Z" fill="white"/>
<path d="M51.2345 26.6753L51.1436 30.152L51.5395 30.2108L52.5086 26.8764L52.0166 25.8516L51.2345 26.6753Z" fill="white"/>
<path d="M61.9195 42.6195C61.949 42.6195 61.9834 42.6245 62.0154 42.6319C62.6179 42.8035 62.7706 44.9709 63.8282 45.1647C63.9314 45.1866 64.0273 45.1916 64.111 45.1916C64.416 45.1916 64.5979 45.0616 64.7947 44.831C64.7947 44.831 64.2634 43.9974 63.8651 43.436C63.3362 42.7005 62.9255 41.8106 61.9415 41.8106C61.9195 41.8106 61.8899 41.8106 61.8654 41.813C61.5406 41.8301 61.3415 41.987 61.3415 41.987C60.943 41.7369 60.5715 41.6511 60.2347 41.6511C59.6173 41.6511 59.1376 41.9331 58.8991 41.9331H58.8891L56.6903 41.7174C56.346 41.6855 56.0755 41.3397 55.9771 41.205C55.9524 41.1682 55.94 41.1461 55.94 41.1461C55.94 41.0872 55.94 41.026 55.9352 40.972C55.8614 39.1797 54.4693 38.4124 53.9748 38.4001C53.9748 38.4001 54.0339 38.0592 53.8987 37.9293L53.414 38.5153L51.8227 37.7185L52.9565 39.0399L51.9948 40.1164C51.8744 40.2389 51.8891 40.4056 51.9383 40.4743L52.354 40.8396L52.8803 40.5208C52.9074 40.5011 52.9541 40.4964 53.0131 40.4964C53.1583 40.4964 53.3771 40.5331 53.5739 40.5331C53.7879 40.5331 53.9748 40.4866 53.9971 40.2855C53.9306 40.95 53.3132 42.1047 53.7191 43.0118L54.0192 43.696L52.076 43.4165L51.166 44.9488C50.8856 45.4589 50.8412 46.0104 51.1119 46.3096L51.4514 46.7338C51.4514 46.7338 51.9285 46.2287 52.0367 45.8976L51.8818 45.7285C51.7513 45.5863 51.7588 45.4589 51.8376 45.3043L52.408 44.3604L54.7029 44.8998L54.8234 44.6938C54.9784 44.4364 55.2022 44.358 55.4483 44.358C55.549 44.358 55.6523 44.3703 55.7605 44.3874C56.1861 44.4707 56.8871 44.5835 57.588 44.5835C58.3579 44.5835 59.1204 44.4463 59.5263 43.9926C60.3575 45.221 62.0424 45.4171 61.9097 46.0398L61.4669 48.1435C61.7596 48.1312 62.0424 48.1117 62.3105 48.0749L62.7311 45.8854C62.7778 45.6475 62.8221 45.3264 62.8221 45.3264C62.6598 45.1621 62.2662 44.8139 62.0449 44.3923C61.7472 43.8234 61.9097 43.5268 61.6316 42.7863C61.6416 42.7912 61.7251 42.6195 61.9195 42.6195ZM53.3353 39.545C53.2222 39.5427 53.141 39.447 53.146 39.3341C53.1559 39.2263 53.2468 39.1406 53.3575 39.1503C53.4707 39.1552 53.5518 39.2533 53.5469 39.3611C53.537 39.469 53.4436 39.5523 53.3353 39.545Z" fill="white"/>
<path d="M50.2016 44.6106C50.2016 44.6106 50.9617 44.2992 51.0306 44.0762L50.9298 43.8235C50.8584 43.6593 50.8683 43.4803 51.006 43.3822L51.8275 42.8158L53.2 43.0782C53.2 43.0782 52.9515 42.7693 52.9762 42.3549L51.6677 42.0779L50.4329 42.8281C49.9041 43.2229 49.8648 43.8676 50.0393 44.2503L50.2016 44.6106Z" fill="white"/>
<path d="M59.9023 48.1752C60.1483 48.1654 60.4188 48.1604 60.7165 48.1604C60.7165 48.1604 61.4224 46.1034 61.4617 46.0371C61.0657 45.8631 60.2443 45.4292 59.9269 45.2305C60.1361 45.542 60.6451 45.8998 60.5443 46.1746L59.9023 48.1752Z" fill="white"/>
<path d="M66.6215 35.9756H47.1094V43.2917C47.1094 46.2829 49.2812 48.1561 52.4861 48.1561C55.1647 48.1561 55.8705 48.2589 56.8668 49.2446C57.5529 48.563 58.1212 48.3079 59.2869 48.2124L59.3141 48.0996L59.9289 46.2044C59.8945 46.1627 58.8885 45.0226 58.8885 45.0226C58.4901 45.155 58.1555 45.1771 57.5924 45.1771C57.0143 45.1771 56.3624 45.1109 55.6565 44.9785C55.5853 44.9614 55.5189 44.9564 55.4524 44.9564C55.3663 44.9564 55.3589 44.9638 55.3368 45.0054L55.2138 45.2065L54.99 45.5744L54.5694 45.4787L52.6976 45.0399L52.4419 45.4615L52.4812 45.5056L52.7099 45.7558L52.6092 46.0819C52.4714 46.5084 52.0237 47.0061 51.8884 47.1435L51.4211 47.6436L50.9957 47.1067L50.6758 46.707C50.3389 46.332 50.2601 45.7558 50.4495 45.1526C50.4446 45.1574 50.4373 45.16 50.4298 45.16L49.901 45.3782L49.6625 44.8633L49.4952 44.4979C49.2074 43.8555 49.3132 42.9166 50.0879 42.3502L51.5957 41.5019L53.0297 41.7838C53.0641 41.6466 53.1158 41.1562 53.1576 41.0312C53.1304 41.0286 53.1035 41.0213 53.0765 41.0213L52.2499 41.3278L51.453 40.7785C51.453 40.7785 51.1408 40.4795 51.4235 40.1803L52.1958 39.0157L50.2405 36.5688L53.2462 37.7996L53.4453 37.552L53.8512 37.069L54.3111 37.5054C54.4416 37.6304 54.5153 37.785 54.5521 37.9394C55.3811 38.2605 56.8642 39.2094 56.9946 40.7515L56.5297 40.9379V40.9502C56.6355 41.0752 56.7239 41.1267 56.7512 41.1316L58.8959 41.3426C58.95 41.3327 59.0189 41.3081 59.0951 41.286C59.3608 41.1954 59.7616 41.0654 60.2365 41.0654C60.6226 41.0654 60.9964 41.1537 61.3554 41.3205C61.4883 41.2714 61.6506 41.2346 61.8376 41.2224L61.9409 41.2198C63.0895 41.2198 63.6601 42.0755 64.1176 42.7571C64.1939 42.8748 64.2702 42.9877 64.3489 43.0979C64.7498 43.6619 65.2736 44.4881 65.2958 44.5226L65.5319 44.8902L65.2417 45.2262C65.0179 45.4836 64.6834 45.7851 64.1078 45.7851C63.9897 45.7851 63.8594 45.7729 63.7192 45.7459C63.5961 45.7238 63.4856 45.687 63.3773 45.643C63.36 45.7558 63.3379 45.8906 63.3158 46.0059L62.9394 47.9623C65.1901 47.4107 66.6192 45.7165 66.6192 43.2941L66.6215 35.9756Z" fill="#FFDD2D"/>
<path d="M47.1095 35.3869H62.2829C61.5252 34.6073 61.535 33.6193 61.7294 32.9769C61.5081 32.8715 61.326 32.7439 61.1637 32.6066C60.5709 33.043 58.7606 34.3572 58.2884 34.6857L58.1876 34.7543L52.2327 33.6804H52.1122C51.9696 33.6804 51.7605 33.6756 51.5318 33.6486C51.4678 33.9159 51.2366 34.0998 50.971 34.0998C50.9414 34.0998 50.9071 34.0974 50.8751 34.09C50.7202 34.0629 50.5847 33.9846 50.4939 33.8545C50.4003 33.7271 50.3635 33.5751 50.3905 33.4182L50.4126 33.2907C49.7978 32.8591 49.2321 31.8956 49.483 30.8806L49.5075 30.7726L49.5936 30.7113C49.6058 30.7015 49.7092 30.633 49.8617 30.5446L49.4289 30.4785C49.2664 30.4491 49.1582 30.2994 49.1829 30.1401C49.2099 29.9782 49.3624 29.863 49.5223 29.895L50.5529 30.0568L50.6464 26.4379L52.1811 24.8196L53.138 26.8277L52.1271 30.3092L53.0371 30.4514C53.197 30.476 53.3076 30.6255 53.2831 30.7898C53.2584 30.9345 53.1355 31.0349 52.9904 31.0349C52.9755 31.0349 52.9583 31.0349 52.9437 31.0326L52.2032 30.9124C52.2131 30.9345 52.2279 30.9467 52.2377 30.9713C52.3165 31.133 52.491 31.2508 52.5944 31.2998L57.1347 31.3708C57.3267 31.1846 57.8038 30.7186 58.2933 30.2259C57.1766 29.8041 56.7709 28.843 56.7019 28.2056C56.0771 27.9407 55.6467 27.5437 55.4082 27.0264C55.1178 26.3864 55.2213 25.7466 55.2974 25.435C54.6924 25.2144 54.0554 24.8123 53.406 24.1699H46.5684C46.861 24.9545 47.1095 25.8052 47.1095 26.6512V35.3869Z" fill="#FFDD2D"/>
<path d="M53.3595 39.1502C53.2487 39.1403 53.1552 39.2262 53.1479 39.3341C53.1405 39.4468 53.224 39.5425 53.3373 39.5449C53.4455 39.5547 53.5414 39.4713 53.5512 39.3611C53.5512 39.2531 53.4725 39.1527 53.3595 39.1502Z" fill="black"/>
<path d="M66.5949 52.4168L65.4708 51.9877L65.7807 50.8304L66.1226 49.5679C66.1226 49.5679 64.1304 50.6441 61.3238 51.4533C60.527 51.6813 59.9243 51.7842 59.9243 51.7842V52.6424C59.9243 52.6424 58.4239 52.9023 56.9065 52.9023H56.8892H56.8671H56.8376H56.8203C55.3027 52.9023 53.8024 52.6424 53.8024 52.6424V51.7842C53.8024 51.7842 53.1973 51.6813 52.4029 51.4533C49.5964 50.6441 47.6066 49.5679 47.6066 49.5679L47.9436 50.8304L48.2609 51.9877L47.1343 52.4168L45.8848 52.8827C47.3188 53.5717 49.3037 54.5768 51.1214 55.0721L50.6934 56.2391C50.6934 56.2391 52.998 57.286 56.8376 57.2959V57.2984H56.8498H56.8671H56.8818H56.8917V57.2959C60.736 57.286 63.0382 56.2391 63.0382 56.2391L62.6078 55.0721C64.4255 54.5768 66.4152 53.5717 67.8419 52.8827L66.5949 52.4168ZM47.218 52.9611L49.0676 52.3481L48.5216 50.5706C49.3357 51.0315 51.1632 51.7229 52.2208 52.0441L51.3279 54.4886C49.6948 54.04 48.3346 53.5176 47.218 52.9611ZM56.8671 56.683C54.7199 56.683 52.2675 56.19 51.5468 55.9351L52.6439 52.9758C53.554 53.2406 55.4479 53.5226 56.8227 53.5128H56.8253H56.8671H56.9039H56.9089C58.2838 53.5226 60.1728 53.2406 61.0877 52.9758L62.1823 55.9351C61.4616 56.1926 59.0117 56.683 56.8671 56.683ZM62.4012 54.4886L61.5108 52.0441C62.571 51.7229 64.3935 51.0315 65.21 50.5706L64.6666 52.3481L66.5136 52.9611C65.3944 53.5176 64.0418 54.04 62.4012 54.4886Z" fill="black"/>
<path d="M56.8641 6.22528C59.1516 6.22528 60.9817 6.98036 61.9924 7.78698C61.9924 7.78698 62.2926 5.98501 63.3182 4.39381L61.476 4.60219L60.5118 2.55983L58.6598 3.51104L56.8641 1.74097L55.0735 3.51104L53.219 2.55983L52.2573 4.60219L50.415 4.39381C51.4407 5.98501 51.7408 7.78698 51.7408 7.78698C52.7541 6.98036 54.5792 6.22528 56.8641 6.22528ZM52.1737 5.31805L52.6853 5.37201L52.9066 4.90863L53.5511 3.53562L54.7465 4.15103L55.2088 4.38638L55.5779 4.02359L56.8666 2.74866L58.1579 4.02359L58.5269 4.38638L58.9892 4.15103L60.1773 3.53562L60.829 4.90863L61.0456 5.37201L61.5572 5.31805L62.0441 5.25918C61.8203 5.7619 61.6556 6.2375 61.5375 6.63219C60.2486 5.91632 58.5712 5.50928 56.8618 5.50928C55.1596 5.50928 53.4846 5.91632 52.191 6.63219C52.0704 6.2375 51.9081 5.75937 51.6842 5.25918L52.1737 5.31805Z" fill="black"/>
<path d="M83.7015 30.1375C86.6604 30.1375 87.6491 27.1364 87.691 27.009L88.0206 25.9523L86.9113 25.9866H86.9064C86.5153 25.9866 83.2515 25.9007 80.9368 22.9684L80.7179 22.6962C79.2053 20.779 77.7713 18.9573 75.2084 18.1261C75.2823 18.0598 75.3881 17.9766 75.5332 17.8834C76.8932 16.9909 77.6853 15.9072 77.8845 14.6495C78.1747 12.7566 76.9646 11.2489 76.9104 11.1875L76.0865 10.1725L75.5725 11.3763C75.5381 11.4523 74.6723 13.3794 72.8522 13.3794H72.7168C72.5914 13.372 72.4734 13.367 72.3553 13.3573C72.4192 12.4968 72.2618 11.1654 71.0518 9.91744C69.598 8.41448 67.8124 8.18896 66.8777 8.18896C66.3784 8.18896 66.0463 8.25023 66.0119 8.25515L64.7673 8.50032L65.5347 9.50802C66.1374 10.2853 66.6834 11.7195 66.0365 12.4698C65.8299 12.7075 65.4045 12.9013 64.9961 13.095C64.1573 13.48 63.0137 14.0144 63.0137 15.3777C63.0137 16.2603 63.6999 17.1822 64.9445 17.9667C68.6289 20.2763 70.9017 22.6863 71.883 25.3467C73.4007 29.4388 71.4206 31.7728 69.4972 33.0012L68.6339 33.5553L69.389 34.2467C69.4898 34.3349 70.4147 35.1466 71.7797 35.2641C72.038 35.2813 72.2864 35.296 72.5176 35.296C73.3933 35.296 74.1386 35.1587 74.7437 34.9749C74.5764 35.2666 74.3722 35.5633 74.1139 35.8624C73.0145 37.1324 71.6618 37.711 69.716 37.7405L68.993 37.7528L68.9365 38.476C68.9291 38.6206 68.8749 39.9619 70.149 41.1019C70.3432 41.2785 70.5794 41.4231 70.8254 41.5433C69.9621 42.318 69.084 43.6665 68.9143 45.9785C68.7716 47.908 68.3093 48.6215 68.3043 48.629L67.5049 49.845L68.9488 49.8647C71.3345 49.8647 73.162 49.2076 74.4287 47.908C75.1764 47.1383 75.6045 46.2703 75.8578 45.5004C76.2734 45.8535 76.8097 46.1625 77.5082 46.3267C77.7739 46.3879 78.0641 46.4224 78.3765 46.4224C79.0504 46.4224 79.6136 46.2801 79.6776 46.2654L80.6 46.0203L80.1916 45.162C80.1621 45.0934 79.3923 43.3723 80.2212 40.9156C80.5779 39.8539 80.7598 38.9027 80.8484 38.1622C81.4288 38.4638 82.206 38.7139 83.212 38.7163C85.4945 38.7163 86.5007 37.0172 86.5473 36.9461L86.9974 36.1664L86.1636 35.8232C83.4432 34.6978 82.8407 31.6747 82.7202 30.037C82.9661 30.0835 83.2464 30.1277 83.5638 30.1375H83.7015ZM85.8586 36.5466C85.8586 36.5466 85.0617 37.9268 83.2342 37.9268H83.212C81.0181 37.9146 80.1326 36.5808 80.1326 36.5808C80.1326 36.5808 80.2605 38.3167 79.4685 40.658C78.5167 43.4803 79.4758 45.498 79.4758 45.498C79.4758 45.498 78.9644 45.6353 78.374 45.6353C78.1477 45.6353 77.9116 45.6132 77.6902 45.5543C75.8578 45.1204 75.4004 43.458 75.4004 43.458C75.4004 43.458 75.57 49.0753 69.0004 49.0753H68.9488C68.9488 49.0753 69.5267 48.2907 69.6989 46.0324C70.0112 41.8644 72.8423 41.2931 72.8423 41.2931C72.8423 41.2931 71.3321 41.1044 70.6778 40.5184C69.6547 39.594 69.726 38.5251 69.726 38.5251C72.038 38.4932 73.5508 37.7086 74.7042 36.3773C75.9538 34.9357 76.1604 33.3837 76.1604 33.3837C76.1604 33.3837 74.9182 34.5066 72.5151 34.5066C72.3036 34.5066 72.0773 34.4968 71.8462 34.4747C70.7099 34.384 69.9228 33.6632 69.9228 33.6632C72.4242 32.0645 74.1803 29.2745 72.6234 25.072C71.3764 21.7057 68.3806 19.1901 65.3651 17.2948C64.3615 16.6698 63.8032 15.9758 63.8032 15.3777C63.8032 13.9702 65.8102 13.9261 66.6342 12.9797C67.5837 11.8814 66.9884 10.0988 66.1644 9.02748C66.1644 9.02748 66.4424 8.97101 66.8802 8.97101C67.7484 8.97101 69.2513 9.18921 70.4861 10.4643C72.1266 12.156 71.4453 13.9973 71.4453 13.9973L71.8856 14.0831C72.1487 14.1395 72.4094 14.1493 72.68 14.1614C72.7391 14.1614 72.7979 14.164 72.857 14.164C75.2404 14.164 76.3054 11.6803 76.3054 11.6803C76.3054 11.6803 78.8388 14.7867 75.11 17.2189C74.4681 17.6358 74.1853 18.0207 74.259 18.4326L74.318 18.7022L74.5837 18.7489C77.2868 19.4795 78.6544 21.338 80.3245 23.4515C82.8604 26.6657 86.449 26.7687 86.8917 26.7687H86.9384C86.9384 26.7687 86.1194 29.3455 83.7065 29.3455C83.667 29.3455 83.6326 29.3455 83.5909 29.3431C82.4815 29.3039 81.9133 28.8797 81.9133 28.8797C81.9133 28.8797 81.478 34.7322 85.8586 36.5466Z" fill="black"/>
<path d="M78.5046 18.4497C79.6089 19.0355 80.2508 19.8202 80.8141 20.5165C81.3675 21.1957 81.8939 21.8503 82.7153 22.1224C83.008 22.2229 83.3181 22.2695 83.6329 22.2695C84.8677 22.2695 86.1072 21.5168 86.577 20.4747L87.0493 19.4303L85.9055 19.3616C85.8514 19.3593 84.3805 19.2267 82.7424 17.5572C82.0684 16.873 81.2544 16.5127 80.3762 16.5127C79.3039 16.5127 78.5094 17.0471 78.4209 17.1011L77.3682 17.8391L78.5046 18.4497ZM80.3788 17.3021C80.9297 17.3021 81.5717 17.4885 82.1791 18.1137C84.0853 20.0432 85.8587 20.1512 85.8587 20.1512C85.5365 20.8623 84.602 21.4873 83.6352 21.4873C83.4114 21.4873 83.1876 21.453 82.9638 21.377C81.6529 20.9357 81.183 18.9743 78.8783 17.7533C78.8783 17.7533 79.5227 17.3021 80.3788 17.3021Z" fill="black"/>
<path d="M79.0213 28.8675V28.9066C78.3573 23.5667 74.4661 19.71 70.1372 17.3635C69.7362 17.1503 69.3673 16.9689 69.0083 16.7948C70.3266 16.9983 72.4492 17.0228 74.0874 15.6057C74.0874 15.6057 71.581 17.4445 66.4453 15.7748C67.867 16.6943 70.6291 17.9913 73.1502 20.0925C79.4543 25.6139 74.9432 31.0006 74.9432 31.0006C77.2086 28.6443 77.302 26.119 76.6354 24.057C77.8284 26.0356 78.5909 28.4384 78.4728 31.4001C78.2983 35.6442 75.9592 39.3146 73.497 42.2642C72.314 43.6958 72.0483 45.4539 72.0483 45.4539C72.0483 45.4539 72.5254 43.9019 73.8954 42.3058C76.5347 39.2263 78.79 36.0268 79.0852 31.4173C79.3583 32.2534 80.4824 34.5801 82.2655 35.4555C82.2705 35.4579 80.0298 34.1119 79.0213 28.8675Z" fill="black"/>
<path d="M45.4248 48.6263C45.4223 48.619 44.9649 47.9055 44.8174 45.976C44.645 43.6638 43.7695 42.3155 42.9037 41.5406C43.1546 41.423 43.3858 41.2782 43.58 41.0993C44.8517 39.9592 44.7976 38.6181 44.7903 38.4734L44.7411 37.75L44.013 37.7379C42.0723 37.7059 40.7171 37.1273 39.6176 35.8598C39.3619 35.5607 39.1552 35.264 38.9879 34.9722C39.5931 35.1561 40.3334 35.2934 41.2114 35.2934C41.4476 35.2934 41.6911 35.2787 41.9494 35.2616C43.3144 35.1438 44.2393 34.3348 44.3426 34.244L45.0977 33.5527L44.2344 32.9985C42.3036 31.7677 40.3309 29.4337 41.846 25.3439C42.8275 22.6838 45.0977 20.2737 48.787 17.9641C50.0316 17.1795 50.7131 16.2576 50.7131 15.375C50.7131 14.0119 49.5717 13.4749 48.7331 13.0924C48.3248 12.8987 47.8993 12.705 47.6925 12.4672C47.0433 11.7194 47.5917 10.2826 48.1919 9.50533L48.9642 8.49763L47.7148 8.25246C47.6779 8.24767 47.3507 8.18628 46.8489 8.18628C45.9143 8.18628 44.1335 8.41191 42.6774 9.91488C41.4649 11.1652 41.305 12.4967 41.3665 13.3547C41.2483 13.3645 41.1304 13.3695 41.0074 13.3768H40.8746C39.0495 13.3768 38.1862 11.4496 38.1518 11.3736L37.6376 10.1698L36.8063 11.1849C36.7595 11.2462 35.5445 12.7565 35.8397 14.6467C36.0365 15.9046 36.8284 16.9883 38.1886 17.8808C38.3363 17.9739 38.4395 18.0572 38.5133 18.1235C35.9527 18.9545 34.5214 20.7788 33.0086 22.6961L32.7898 22.9683C30.4778 25.9005 27.2065 25.9863 26.8154 25.9863L25.7012 25.9521L26.0405 27.0089C26.0799 27.1362 27.0662 30.1373 30.0276 30.1373L30.1702 30.1324C30.4826 30.1226 30.763 30.0809 31.014 30.0319C30.8909 31.6672 30.2884 34.6903 27.5655 35.8181L26.7342 36.1613L27.1843 36.9411C27.2286 37.0121 28.2371 38.7112 30.5245 38.7112C31.523 38.7087 32.3002 38.4587 32.8832 38.1571C32.9718 38.8976 33.1537 39.8489 33.5104 40.9105C34.3392 43.3672 33.567 45.0884 33.5375 45.157L33.1293 46.0152L34.054 46.2604C34.1154 46.2749 34.6837 46.4173 35.3551 46.4173C35.6699 46.4173 35.9602 46.3829 36.2209 46.3217C36.9219 46.1574 37.463 45.8484 37.8738 45.4953C38.1247 46.2652 38.5552 47.1332 39.3003 47.9029C40.5696 49.2025 42.3945 49.8595 44.7805 49.8595L46.2267 49.8399L45.4248 48.6263ZM44.7262 49.0749C38.1566 49.0749 38.3239 43.4578 38.3239 43.4578C38.3239 43.4578 37.8664 45.1202 36.0339 45.5542C35.815 45.613 35.5814 45.6351 35.3528 45.6351C34.7624 45.6351 34.2532 45.4979 34.2532 45.4979C34.2532 45.4979 35.2077 43.4799 34.2557 40.6579C33.4686 38.3164 33.5964 36.5806 33.5964 36.5806C33.5964 36.5806 32.7135 37.9144 30.5171 37.9267H30.495C28.6675 37.9267 27.8705 36.5462 27.8705 36.5462C32.2486 34.7344 31.8182 28.8844 31.8182 28.8844C31.8182 28.8844 31.2501 29.3061 30.1383 29.3477C30.0989 29.3502 30.062 29.3502 30.0227 29.3502C27.6073 29.3502 26.7907 26.7733 26.7907 26.7733H26.8399C27.2851 26.7733 30.8688 26.6705 33.4047 23.4561C35.0748 21.3427 36.4447 19.4867 39.1431 18.7535L39.4136 18.707L39.4725 18.4373C39.5464 18.0255 39.2659 17.6405 38.6241 17.2236C34.8951 14.7889 37.4286 11.6851 37.4286 11.6851C37.4286 11.6851 38.4886 14.1662 40.877 14.1662C40.9359 14.1662 40.9902 14.1639 41.0516 14.1639C41.3197 14.1491 41.5854 14.1392 41.846 14.0829L42.2863 13.9971C42.2863 13.9971 41.605 12.1557 43.2481 10.464C44.4828 9.18665 45.9857 8.97085 46.8513 8.97085C47.2917 8.97085 47.5647 9.02732 47.5647 9.02732C46.7431 10.1012 46.148 11.8812 47.0974 12.9795C47.9189 13.9236 49.9234 13.9701 49.9234 15.3774C49.9234 15.9733 49.3651 16.6696 48.3616 17.2947C45.3436 19.19 42.3478 21.7055 41.1032 25.0719C39.5488 29.2743 41.3026 32.0619 43.8089 33.6629C43.8089 33.6629 43.0217 34.3839 41.883 34.4745C41.6517 34.4966 41.4279 34.5064 41.2114 34.5064C38.8108 34.5064 37.5688 33.3835 37.5688 33.3835C37.5688 33.3835 37.7754 34.9355 39.0174 36.3771C40.1785 37.7085 41.6911 38.4931 44.0032 38.5249C44.0032 38.5249 44.077 39.5939 43.0538 40.5182C42.3971 41.1017 40.8868 41.2929 40.8868 41.2929C40.8868 41.2929 43.7203 41.8643 44.0302 46.0323C44.2 48.2904 44.773 49.0749 44.773 49.0749H44.7262Z" fill="black"/>
<path d="M30.0941 22.2724C30.4113 22.2724 30.7213 22.2259 31.0141 22.1253C31.8404 21.8531 32.3643 21.1985 32.9177 20.5194C33.4834 19.8231 34.1204 19.0386 35.2248 18.4525L36.3611 17.8445L35.306 17.1064C35.2174 17.0501 34.4254 16.5181 33.3555 16.5181C32.4749 16.5181 31.6584 16.8761 30.9868 17.5626C29.3489 19.2298 27.8805 19.3647 27.8263 19.3671L26.6826 19.4333L27.1523 20.4801C27.6246 21.5173 28.8617 22.2724 30.0941 22.2724ZM31.5502 18.1167C32.1602 17.4914 32.8021 17.3052 33.3555 17.3052C34.2064 17.3052 34.8511 17.7562 34.8511 17.7562C32.5488 18.9797 32.0765 20.9387 30.7606 21.38C30.5442 21.456 30.3179 21.4903 30.0941 21.4903C29.1274 21.4903 28.1928 20.8676 27.873 20.1541C27.873 20.1517 29.644 20.0437 31.5502 18.1167Z" fill="black"/>
<path d="M35.2572 31.4027C35.1341 28.4409 35.8966 26.0381 37.0919 24.0596C36.4254 26.1214 36.5164 28.6469 38.7842 31.003C38.7842 31.003 34.2733 25.6163 40.5798 20.095C43.1033 17.9938 45.863 16.6967 47.2821 15.7773C42.1491 17.4471 39.6427 15.6082 39.6427 15.6082C41.2807 17.0253 43.4035 17.0009 44.7218 16.7948C44.3651 16.9689 43.9913 17.1503 43.5952 17.3638C39.2615 19.71 35.3728 23.5667 34.7062 28.9067V28.8651C33.7002 34.1094 31.4619 35.4555 31.4619 35.4555C33.2428 34.5802 34.3643 32.2559 34.6374 31.4173C34.935 36.0268 37.1903 39.2263 39.8296 42.3058C41.1996 43.9019 41.6816 45.4539 41.6816 45.4539C41.6816 45.4539 41.4136 43.696 40.2255 42.2642C37.7684 39.3196 35.4293 35.6468 35.2572 31.4027Z" fill="black"/>
<path d="M55.3818 20.5977V21.657C55.7484 21.2131 56.4569 21.3039 56.4569 21.3039V22.8313C56.4569 22.8313 56.4322 23.5816 56.1641 23.9077H56.9314H57.6965C57.4332 23.5841 57.4062 22.8313 57.4062 22.8313V21.3039C57.4062 21.3039 58.1145 21.2131 58.4786 21.657V20.5977H56.9314H55.3818Z" fill="black"/>
<path d="M54.722 14.3161C55.2115 14.7036 55.4944 14.7672 55.5042 14.7747L55.696 14.8629V13.865L53.8955 13.1099C53.8955 13.1123 53.9127 13.6885 54.722 14.3161Z" fill="black"/>
<path d="M59.0047 14.3161C59.8189 13.6885 59.8337 13.1099 59.8337 13.1099L58.0332 13.865V14.8629L58.2226 14.7747C58.235 14.7672 58.5153 14.7036 59.0047 14.3161Z" fill="black"/>
<path d="M62.2488 10.2538C62.2488 8.74115 59.6931 7.38037 56.872 7.38037H56.8695H56.8621H56.8548C54.0336 7.38037 51.4781 8.74115 51.4781 10.2538L51.5346 10.6266L52.6611 17.0723L51.5298 17.7269L48.6028 19.431H48.6126C48.6126 19.431 47.9534 19.7669 47.6484 19.9752C46.5342 20.7475 46.2981 21.8729 46.945 22.3388C47.1049 21.4219 47.8328 20.4607 49.1955 20.4607C50.177 20.4607 50.9246 20.9658 51.5298 21.7235C51.6847 21.9147 51.8322 22.118 51.97 22.3388C52.1396 22.6158 52.3093 22.8585 52.4791 23.0939H44.9404C45.4938 24.2045 46.0201 25.3815 46.0201 26.6588V43.2918C46.0201 47.3177 49.1266 49.2399 52.4865 49.2399C55.0838 49.2399 55.4331 49.1223 56.867 50.5444C58.2936 49.1197 58.6429 49.2399 61.2426 49.2399C64.6051 49.2399 67.7065 47.3177 67.7065 43.2918V26.6588C67.7065 25.3815 68.2329 24.2045 68.7887 23.0939H61.2477C61.415 22.8611 61.5845 22.6158 61.7543 22.3388C61.8945 22.118 62.0396 21.9147 62.1921 21.7235C62.8021 20.9633 63.5473 20.4607 64.5288 20.4607C65.8913 20.4607 66.6169 21.4193 66.7793 22.3388C67.4262 21.8729 67.1926 20.7475 66.0709 19.9752C65.7708 19.7669 65.1117 19.431 65.1117 19.431H65.1215L62.1945 17.7269L61.0681 17.0723L62.1945 10.6266L62.2488 10.2538ZM52.5874 11.0041L56.5473 12.3428V18.5434L53.6327 17.0111L52.5874 11.0041ZM53.4064 24.1752C54.0557 24.8199 54.6927 25.2197 55.2979 25.4403C55.2191 25.7516 55.1158 26.394 55.4084 27.034C55.6471 27.5488 56.08 27.946 56.7023 28.2108C56.7711 28.8484 57.1745 29.807 58.2936 30.2311C57.8042 30.7239 57.3269 31.1874 57.1327 31.3762L52.5947 31.305C52.4914 31.2535 52.3167 31.1383 52.238 30.974C52.2281 30.9519 52.2135 30.9397 52.206 30.9152L52.9465 31.0352C52.9636 31.0378 52.9784 31.0378 52.9932 31.0378C53.1359 31.0378 53.2613 30.9397 53.2858 30.7926C53.3105 30.6284 53.1998 30.4788 53.0399 30.4543L52.1298 30.3121L53.1407 26.8329L52.1839 24.8249L50.6492 26.4431L50.5557 30.062L49.5251 29.9002C49.3652 29.8682 49.2127 29.986 49.1857 30.1453C49.1611 30.3047 49.2692 30.4543 49.4316 30.4837L49.8646 30.5498C49.7095 30.6381 49.6087 30.7068 49.5964 30.7166L49.5079 30.7778L49.4833 30.8858C49.2324 31.9008 49.8005 32.8643 50.4131 33.2958L50.3908 33.4234C50.3663 33.5804 50.4008 33.7324 50.4941 33.8599C50.5827 33.9898 50.7204 34.0682 50.873 34.0952C50.9049 34.1 50.9394 34.1024 50.9689 34.1024C51.2346 34.1024 51.4657 33.9186 51.5321 33.6514C51.7609 33.6785 51.97 33.6833 52.1125 33.6833H52.2332L58.1878 34.7547L58.2887 34.6885C58.7635 34.3575 60.5712 33.0434 61.1639 32.6093C61.3264 32.7492 61.5083 32.8766 61.7298 32.9821C61.5378 33.6245 61.5255 34.6125 62.2856 35.3922H47.1097V26.6613C47.1097 25.8154 46.8612 24.9647 46.5686 24.1801H53.4064V24.1752ZM60.7655 32.1631C60.163 32.6045 58.6134 33.7324 58.0525 34.1247L52.6415 33.1562C52.6538 33.1071 52.6659 33.0605 52.6782 33.0114C52.7497 32.732 52.8211 32.3495 52.8259 31.9008L57.3738 31.9743L57.4598 31.8862C57.5287 31.8175 58.9701 30.4298 59.7054 29.6304C59.8801 29.8487 60.099 30.0571 60.3844 30.241C60.286 30.7705 60.3277 31.5256 60.7655 32.1631ZM51.7068 31.229C51.8346 31.4962 52.0659 31.6753 52.2257 31.7757C52.2209 32.0258 52.1963 32.4157 52.1298 32.7589C52.1151 32.835 52.0953 32.9061 52.0732 32.9772C52.0609 33.0213 52.0488 33.0581 52.0388 33.0874C51.8003 33.0874 51.3304 33.0581 50.9467 32.9183C50.5213 32.7613 49.8866 31.9842 50.0341 31.1285C50.2187 31.0157 50.6442 30.7778 51.0426 30.7778C51.3501 30.7755 51.5593 30.92 51.7068 31.229ZM51.1435 30.1527L51.2346 26.6785L52.0167 25.8523L52.5087 26.8771L51.5396 30.2115L51.1435 30.1527ZM60.7164 48.1636C60.4212 48.1636 60.1482 48.1686 59.9022 48.1783L60.5465 46.1801C60.6475 45.903 60.1383 45.5475 59.9294 45.2361C60.2465 45.4347 61.0681 45.8687 61.4641 46.0428C61.4222 46.1065 60.7164 48.1636 60.7164 48.1636ZM62.7382 45.8932L62.3176 48.0802C62.0494 48.117 61.7641 48.1366 61.4715 48.1489L61.9142 46.0452C62.047 45.4201 60.3621 45.2264 59.5308 43.998C59.125 44.4541 58.3601 44.5889 57.5926 44.5889C56.8917 44.5889 56.1907 44.4761 55.7651 44.3928C55.6569 44.3756 55.5537 44.3633 55.4528 44.3633C55.2068 44.3633 54.983 44.4393 54.8281 44.6992L54.705 44.9053L52.4103 44.3658L51.8396 45.3071C51.7584 45.4593 51.7536 45.5892 51.8838 45.7314L52.0388 45.9006C51.933 46.2341 51.4559 46.7366 51.4559 46.7366L51.114 46.3126C50.8435 46.011 50.8877 45.4617 51.1705 44.9518L52.0806 43.4194L54.0238 43.6988L53.7212 43.0123C53.3154 42.1053 53.9328 40.9504 53.9991 40.2861C53.9771 40.4871 53.7925 40.5312 53.5761 40.5312C53.3794 40.5312 53.1604 40.4944 53.0153 40.4944C52.9588 40.4944 52.9095 40.4993 52.8824 40.5188L52.3561 40.8376L51.9404 40.4723C51.8913 40.4013 51.874 40.237 51.9971 40.1144L52.9588 39.0405L51.8224 37.7189L53.4138 38.5159L53.8984 37.9298C54.031 38.0597 53.9745 38.4004 53.9745 38.4004C54.4714 38.4128 55.8635 39.1802 55.9373 40.97C55.9423 41.024 55.9423 41.0852 55.9423 41.1441C55.9423 41.1441 55.9546 41.1662 55.9791 41.203C56.0775 41.3378 56.348 41.6835 56.6923 41.7153L58.8914 41.9312H58.9012C59.1422 41.9312 59.6218 41.6491 60.2367 41.6491C60.5712 41.6491 60.9451 41.735 61.3435 41.9851C61.3435 41.9851 61.5428 41.8282 61.8675 41.8111C61.8921 41.8086 61.9191 41.8086 61.9438 41.8086C62.9301 41.8086 63.3383 42.6961 63.8671 43.4341C64.2657 43.9955 64.7968 44.8292 64.7968 44.8292C64.6001 45.062 64.4181 45.1896 64.113 45.1896C64.0295 45.1896 63.9334 45.1822 63.8302 45.1627C62.7726 44.9689 62.6201 42.8015 62.0175 42.6299C61.9856 42.6201 61.9511 42.6176 61.9216 42.6176C61.7272 42.6176 61.6412 42.7892 61.6412 42.7892C61.9166 43.5273 61.7568 43.8264 62.052 44.3952C62.2733 44.8169 62.6668 45.165 62.8291 45.3292C62.8291 45.3342 62.7849 45.6529 62.7382 45.8932ZM50.9296 43.8239L51.0304 44.0764C50.9639 44.2971 50.2014 44.611 50.2014 44.611L50.0367 44.2531C49.862 43.8706 49.8989 43.2257 50.4303 42.831L51.665 42.0806L52.9734 42.3577C52.9489 42.7721 53.1972 43.0811 53.1972 43.0811L51.8247 42.8187L51.0033 43.3851C50.8655 43.4806 50.8557 43.6597 50.9296 43.8239ZM62.9447 47.96L63.3211 46.0036C63.3407 45.8883 63.3654 45.7535 63.3826 45.6408C63.4884 45.6849 63.6014 45.7215 63.7245 45.7437C63.8646 45.7706 63.995 45.783 64.113 45.783C64.6886 45.783 65.0231 45.4813 65.2469 45.2239L65.5373 44.8879L65.3011 44.5203C65.279 44.4834 64.7574 43.6596 64.3541 43.0956C64.2755 42.9854 64.1991 42.875 64.1229 42.755C63.6655 42.0734 63.0922 41.2176 61.9438 41.2176L61.8404 41.2201C61.6511 41.2323 61.4887 41.2691 61.3583 41.3182C60.9967 41.149 60.6253 41.0632 60.2392 41.0632C59.7644 41.0632 59.3636 41.1931 59.0979 41.2839C59.0216 41.3059 58.9528 41.3304 58.8987 41.3403L56.7514 41.1294C56.7244 41.1245 56.6358 41.073 56.5302 40.9456V40.9357L56.9949 40.7494C56.8647 39.2072 55.3789 38.2582 54.55 37.9371C54.5132 37.7827 54.4394 37.6282 54.3091 37.5032L53.8466 37.0668L53.4408 37.5522L53.2417 37.7998L50.2359 36.569L52.1913 39.0158L51.419 40.1805C51.1362 40.4796 51.4485 40.7787 51.4485 40.7787L52.2453 41.3255L53.0719 41.019C53.1014 41.019 53.1261 41.0264 53.1531 41.0288C53.1137 41.1539 53.062 41.6443 53.0277 41.7816L51.5937 41.4996L50.0858 42.3479C49.3111 42.9142 49.2053 43.8534 49.4931 44.4956L49.6604 44.861L49.8989 45.3759L50.4252 45.1577C50.4327 45.1553 50.4401 45.1528 50.4449 45.1479C50.2556 45.751 50.3319 46.3247 50.6713 46.7024L50.991 47.1044L51.4165 47.6414L51.8838 47.1412C52.0215 47.0039 52.4668 46.5062 52.6045 46.0796L52.7054 45.7535L52.4766 45.5033L52.4398 45.4593L52.6954 45.0376L54.5672 45.4764L54.9878 45.5721L55.2116 45.2043L55.3347 45.0033C55.3568 44.9616 55.3642 44.9542 55.4503 44.9542C55.5167 44.9542 55.5831 44.9616 55.6545 44.9763C56.3603 45.1086 57.0122 45.1748 57.5902 45.1748C58.1509 45.1748 58.4855 45.1528 58.8864 45.0204C58.8864 45.0204 59.8924 46.1581 59.9268 46.2022L59.312 48.0949L59.2848 48.2101C58.119 48.3033 57.5507 48.5583 56.8647 49.2425C55.8683 48.2568 55.1625 48.1538 52.484 48.1538C49.279 48.1538 47.1072 46.2806 47.1072 43.2894V35.9757H66.6169L66.622 43.2894C66.6244 45.7168 65.1953 47.4084 62.9447 47.96ZM67.1631 24.1752C66.8654 24.9598 66.6169 25.8105 66.6169 26.6565L66.6194 32.1141C65.4758 31.9229 65.3405 30.6945 65.3355 30.6406L65.3135 30.3905L65.0675 30.3684C64.5706 30.3218 64.241 30.111 63.963 29.8413C63.4023 29.2823 63.3998 28.3751 63.4023 28.3678C63.395 28.4143 62.7849 29.265 63.4932 30.1943C63.7909 30.5866 64.2213 30.8269 64.7796 30.9226C64.9101 31.6042 65.4191 32.5653 66.6194 32.7123V35.3848H63.2449C61.6879 34.5217 62.3472 33.0016 62.379 32.938L62.5119 32.6487L62.2143 32.5359C60.5294 31.9132 60.9918 30.2361 61.0164 30.165L61.0853 29.9198L60.8566 29.8119C59.4644 29.1695 59.6538 27.4361 59.671 27.3651C59.2431 27.7107 59.0881 28.4169 59.3832 29.1083C59.2234 29.2897 59.0094 29.5103 58.7757 29.7507C57.3344 29.3852 57.2901 28.0638 57.2901 28.0025L57.2876 27.7989L57.0983 27.7254C56.535 27.5171 56.1489 27.2055 55.9595 26.7863C55.7455 26.3229 55.8217 25.8375 55.8807 25.6045C56.0455 25.6414 56.2103 25.6684 56.3677 25.6805C56.5302 25.6979 56.6974 25.7076 56.8647 25.7076H56.8745H56.8867C57.054 25.7076 57.2187 25.6979 57.3811 25.6805C58.2789 25.5924 59.2848 25.2075 60.3326 24.1728H67.1631V24.1752ZM61.9044 18.6585L63.2375 19.431H63.2572L63.5916 19.6247C62.8389 19.8331 62.2634 20.2082 61.7813 20.7009C61.7641 20.7157 61.747 20.7354 61.7298 20.7525C61.619 20.8702 61.5083 20.9977 61.405 21.1277C61.3854 21.1521 61.3657 21.179 61.3435 21.2061C61.2403 21.3385 61.1443 21.4733 61.0509 21.6155C61.036 21.64 61.0188 21.6646 61.0016 21.6865C60.891 21.8508 60.7852 22.0275 60.6794 22.2089C59.73 23.8393 58.2149 24.8126 56.867 24.8152C55.5217 24.8126 54.0066 23.8393 53.0572 22.2089C52.9537 22.0323 52.8505 21.8606 52.7399 21.6941C52.7176 21.6621 52.698 21.6302 52.6782 21.6033C52.5849 21.4684 52.4914 21.336 52.3954 21.211C52.3709 21.1767 52.3488 21.1497 52.3241 21.1203C52.2209 20.9952 52.1151 20.8702 52.0093 20.755C51.9871 20.7377 51.9724 20.7157 51.9503 20.6961C51.4657 20.2033 50.8926 19.8305 50.1375 19.6247L50.4769 19.431H50.4918L51.8247 18.6585L53.1948 17.8765L56.8548 19.8625L56.8621 19.8552L56.872 19.8625L60.5319 17.8765L61.9044 18.6585ZM60.099 17.0134L57.1818 18.5459V12.3428L61.1394 11.0041L60.099 17.0134ZM56.8647 11.6612L52.5259 9.95229C52.8948 9.08188 54.5968 8.34143 56.8647 8.33902C59.1348 8.34143 60.8369 9.08188 61.2033 9.95229L56.8647 11.6612Z" fill="black"/>
<path d="M7.8046 82.0979V74.4229H12.3209V71.63H0V74.4229H4.51611V82.0979H7.8046ZM16.8157 77.7217V71.63H13.6369V82.0979H16.4432L21.9238 76.0062V82.0979H25.1028V71.63H22.2965L16.8157 77.7217ZM35.7972 78.2055V82.0979H38.976V71.63H35.7972V75.4564H30.689V71.63H27.5103V82.0979H30.689V78.2055H35.7972ZM47.8289 82.0979C48.5524 82.0979 49.2101 82.032 49.8239 81.856C51.4682 81.3941 52.5425 80.0526 52.5425 78.2273C52.5425 76.4901 51.6215 75.2806 50.1528 74.7307C49.4513 74.4669 48.6182 74.4448 47.8289 74.4448H44.5624V71.63H41.3835V82.0979H47.8289ZM47.2809 76.908C47.7193 76.908 48.1358 76.908 48.5085 77.0399C49.0347 77.2157 49.3416 77.6556 49.3416 78.1834C49.3416 78.7333 49.0347 79.1951 48.5305 79.415C48.1797 79.5688 47.8289 79.5688 47.2809 79.5688H44.5624V76.908H47.2809ZM58.2421 78.1394L62.0348 82.0979H66.266L60.9825 76.644L66.0686 71.63H62.0787L58.2421 75.5665H57.3652V71.63H54.1862V82.0979H57.3652V78.1394H58.2421ZM72.8071 71.344C68.532 71.344 65.9669 73.763 65.9669 76.8859C65.9669 80.0088 68.532 82.4278 72.8071 82.4278C77.0601 82.4278 79.6251 80.0088 79.6251 76.8859C79.6251 73.763 77.0601 71.344 72.8071 71.344ZM72.8071 79.8768C70.6805 79.8768 69.3212 78.6013 69.3212 76.8859C69.3212 75.1706 70.6805 73.917 72.8071 73.917C74.9116 73.917 76.2928 75.1706 76.2928 76.8859C76.2928 78.6013 74.9116 79.8768 72.8071 79.8768ZM90.2118 71.0361H87.033V72.0917C83.043 72.1797 80.6533 73.873 80.6533 76.8639C80.6533 79.8547 83.043 81.4162 87.033 81.5042V82.5598H90.2118V81.5042C94.2238 81.4162 96.6133 79.8547 96.6133 76.8639C96.6133 73.873 94.2238 72.1797 90.2118 72.0917V71.0361ZM87.033 79.261C84.8407 79.173 83.876 78.2714 83.876 76.8639C83.876 75.4564 84.8407 74.4448 87.033 74.3569V79.261ZM90.2118 74.3569C92.4262 74.4448 93.3688 75.4564 93.3688 76.8639C93.3688 78.2714 92.4262 79.173 90.2118 79.261V74.3569ZM107.19 71.0361H104.011V72.0917C100.021 72.1797 97.631 73.873 97.631 76.8639C97.631 79.8547 100.021 81.4162 104.011 81.5042V82.5598H107.19V81.5042C111.201 81.4162 113.591 79.8547 113.591 76.8639C113.591 73.873 111.201 72.1797 107.19 72.0917V71.0361ZM104.011 79.261C101.818 79.173 100.854 78.2714 100.854 76.8639C100.854 75.4564 101.818 74.4448 104.011 74.3569V79.261ZM107.19 74.3569C109.404 74.4448 110.346 75.4564 110.346 76.8639C110.346 78.2714 109.404 79.173 107.19 79.261V74.3569Z" fill="black"/>
</svg>
