<svg width="70" height="70" viewBox="0 0 70 70" fill="none" xmlns="http://www.w3.org/2000/svg">
<path d="M63.9102 40.5008C61.3071 38.1472 58.0726 36.6855 54.6462 36.286C54.6462 34.9514 54.6462 13.3595 54.6462 12.3528C54.6462 11.2713 54.1441 10.3062 53.3632 9.68033C52.9004 9.27284 52.0844 8.93745 51.2558 8.93745H41.8964V5.69038C41.8964 2.55386 39.3627 0 36.2486 0H32.3678C31.8 0 31.3414 0.463028 31.3414 1.03394C31.3414 1.60645 31.8 2.06841 32.3678 2.06841H36.2486C38.2303 2.06841 39.8431 3.69408 39.8431 5.69038V8.93745H38.1773V5.69038C38.1773 4.61906 37.3121 3.74641 36.2486 3.74641H18.3981C17.3346 3.74641 16.4683 4.61906 16.4683 5.69038V8.93745H14.8026V5.69038C14.8026 3.69408 16.4164 2.06841 18.3981 2.06841H28.2617C28.8285 2.06841 29.2881 1.60645 29.2881 1.03394C29.2881 0.463028 28.8285 0 28.2617 0H18.3981C15.2845 0 12.7493 2.55386 12.7493 5.69038V8.93745H3.39037C1.52103 8.93745 0 10.4697 0 12.3528V19.2773C0 19.2827 0.000530127 19.2886 0.000530127 19.2939V37.4385C0.000530127 38.0094 0.459118 38.4724 1.02692 38.4724C1.59366 38.4724 2.05384 38.0094 2.05384 37.4385V25.7256C3.6072 27.9168 5.92824 29.5174 8.61933 30.1262V33.1618C8.61933 34.38 9.60331 35.3712 10.8126 35.3712H13.8971C15.1069 35.3712 16.0909 34.38 16.0909 33.1618V30.3991H38.5553V33.1618C38.5553 34.38 39.5393 35.3712 40.7491 35.3712H43.8336C45.0429 35.3712 46.0268 34.38 46.0268 33.1618V30.1267C48.7179 29.5174 51.0395 27.9163 52.5929 25.725V36.1739C48.658 36.1942 44.8032 37.6025 41.7315 40.2749C41.3031 40.6471 41.2554 41.3008 41.6265 41.7334C41.9971 42.1655 42.645 42.2135 43.0744 41.8397C52.4852 33.6579 67.432 40.2193 67.432 53.1051C67.432 61.3157 60.8612 67.9316 52.675 67.9316C40.7777 67.9316 33.9026 54.483 40.5233 44.7172C40.8435 44.2456 40.7231 43.6021 40.255 43.2795C39.7869 42.958 39.1491 43.0782 38.8283 43.5497C37.6705 45.2566 36.844 47.1343 36.3716 49.1077H8.13636C4.78151 49.1077 2.05384 46.3594 2.05384 42.9815V41.5748C2.05384 41.0044 1.59366 40.5408 1.02692 40.5408C0.459118 40.5408 0.000530127 41.0044 0.000530127 41.5748V42.9815C0.000530127 47.5002 3.64962 51.1761 8.13636 51.1761H36.009C34.8962 61.3317 42.7823 70 52.6756 70C57.4581 70 61.9931 67.9727 65.1889 64.3839C71.4225 57.3845 70.7673 46.6964 63.9102 40.5008V40.5008ZM18.5216 5.81482H36.124V8.93745H18.5216V5.81482ZM14.0376 33.1618C14.0376 33.2397 13.9745 33.3033 13.8971 33.3033H10.8126C10.7357 33.3033 10.6726 33.2397 10.6726 33.1618V30.39C11.0612 30.4028 10.5735 30.3991 14.0376 30.3991V33.1618ZM14.0376 28.3307C10.6896 28.3307 10.9844 28.3344 10.6726 28.3216V25.4975C10.6726 25.4195 10.7352 25.356 10.8126 25.356H13.8971C13.9745 25.356 14.0376 25.4195 14.0376 25.4975V28.3307ZM43.9741 33.1618C43.9741 33.2397 43.911 33.3033 43.8336 33.3033H40.7491C40.6717 33.3033 40.6086 33.2397 40.6086 33.1618V30.3991C44.0737 30.3991 43.586 30.4028 43.9741 30.39V33.1618ZM43.9741 28.3216C43.6623 28.3344 43.9592 28.3307 40.6086 28.3307V25.4975C40.6086 25.4195 40.6717 25.356 40.7491 25.356H43.8336C43.911 25.356 43.9741 25.4195 43.9741 25.4975V28.3216ZM52.5934 19.2773C52.5934 23.4243 49.8101 26.9267 46.0274 27.9942V25.4975C46.0274 24.2788 45.0429 23.2876 43.8336 23.2876H40.7491C39.5398 23.2876 38.5558 24.2788 38.5558 25.4975V28.3307H16.0909V25.4975C16.0909 24.2788 15.1069 23.2876 13.8971 23.2876H10.8126C9.60331 23.2876 8.61933 24.2788 8.61933 25.4975V27.9942C4.84142 26.9283 2.06073 23.4339 2.05384 19.2944V12.3533C2.05384 11.6099 2.65292 11.0059 3.3909 11.0059H51.2558C51.9911 11.0059 52.5934 11.6099 52.5934 12.3528V19.2773Z" fill="#0071E3"/>
</svg>
