<svg width="27" height="27" viewBox="0 0 27 27" fill="none" xmlns="http://www.w3.org/2000/svg">
<path d="M23.685 17.1891C22.175 17.1891 20.6923 16.9529 19.2873 16.4886C18.5868 16.2498 17.7893 16.4351 17.3323 16.9008L14.8906 18.8892C11.6744 17.1724 9.69334 15.192 8 12L9.70037 9.40408C10.2283 8.87688 10.4176 8.10677 10.1908 7.38419C9.72445 5.97179 9.48757 4.48983 9.48757 2.97916C9.48764 1.88784 8.5998 1 7.50854 1H2.97903C1.88784 1 1 1.88784 1 2.97903C1 15.4877 11.1764 25.664 23.685 25.664C24.7763 25.664 25.6641 24.7762 25.6641 23.6849V19.1681C25.664 18.077 24.7762 17.1891 23.685 17.1891ZM24.2938 23.685C24.2938 24.0209 24.0209 24.2938 23.685 24.2938C11.9317 24.2938 2.37027 14.7323 2.37027 2.9791C2.37027 2.64324 2.64324 2.37027 2.9791 2.37027H7.50861C7.84446 2.37027 8.11744 2.64324 8.11744 2.9791C8.11744 4.63634 8.37769 6.26282 8.88684 7.80368C8.95775 8.03118 8.9002 8.26664 8.67006 8.50622L6.6465 11.5202C6.48862 11.7296 6.46383 12.01 6.58227 12.2434C8.50446 16.0216 10.8402 18.3573 14.645 20.3069C14.8765 20.428 15.1602 20.4026 15.3703 20.244C15.5804 20.0854 18.2295 17.9318 18.2295 17.9318C18.3907 17.7706 18.6323 17.713 18.8504 17.7873C20.4019 18.2998 22.0284 18.5594 23.685 18.5594C24.0209 18.5594 24.2938 18.8323 24.2938 19.1682V23.685Z" fill="#0071E3" stroke="#0071E3"/>
</svg>
